<?xml version="1.0" encoding="UTF-8"?><svg id="Layer_7" xmlns="http://www.w3.org/2000/svg" xmlns:xlink="http://www.w3.org/1999/xlink" viewBox="0 0 500 500"><defs><style>.cls-1,.cls-2{fill:#fff;}.cls-2{opacity:.3;}.cls-3{clip-path:url(#clippath);}.cls-4{fill:#98a8da;}.cls-5{fill:none;}.cls-6{fill:#ccd1d7;}.cls-7{fill:url(#linear-gradient);}</style><clipPath id="clippath"><path class="cls-5" d="M500,390c0,60.75-49.25,110-110,110H110C49.25,500,0,450.75,0,390V110C0,49.25,49.25,0,110,0H390C450.75,0,500,49.25,500,110V390Z"/></clipPath><linearGradient id="linear-gradient" x1="2777.27" y1="-2527.27" x2="3277.27" y2="-2527.27" gradientTransform="translate(-2777.27 2777.27)" gradientUnits="userSpaceOnUse"><stop offset="0" stop-color="#4f6177"/><stop offset="1" stop-color="#3b4e67"/></linearGradient></defs><g class="cls-3"><rect class="cls-7" x="0" y="0" width="500" height="500" rx="110" ry="110" transform="translate(500 0) rotate(90)"/><g><path class="cls-2" d="M280.82,246.61V859.56c0,42.05,34.21,76.26,76.26,76.26s76.26-34.21,76.26-76.26V246.61h-152.51Z"/><path class="cls-6" d="M357.08,944.85c-47.03,0-85.29-38.26-85.29-85.29V246.61h18.06V859.56c0,37.07,30.16,67.23,67.23,67.23s67.23-30.16,67.23-67.23V246.61h18.06V859.56c0,47.03-38.26,85.29-85.29,85.29Z"/></g><g><path class="cls-1" d="M102.11,141.2h154.12v206.33c0,20.36-16.53,36.89-36.89,36.89h-80.35c-20.36,0-36.89-16.53-36.89-36.89V141.2h0Z" transform="translate(206.16 -54.12) rotate(39.15)"/><path class="cls-4" d="M79.71,304.65c.41,3.96,2.33,7.52,5.41,10.03l62.31,50.73c3.39,2.76,6.97,3.34,9.38,3.34,4.51,0,8.73-2,11.57-5.49l107.36-131.86c1.21-2.98,1.79-6.24,1.02-9.53-1.22-5.12-5.66-9.63-12.51-12.71-5.7-2.56-15.67-5.27-30.75-3.68-16.5,1.74-29.53,.34-39.84-4.28-10.68-4.79-16.44-12.18-19.67-19.25l-91.01,111.78c-2.51,3.08-3.67,6.96-3.27,10.92Z"/></g><path class="cls-4" d="M351.13,374.55c11.7,11.77,22.69,18.91,33.59,21.83,11.97,3.21,21.51,.67,28.61-3.13v140.5c0,11.57-8.8,20.02-13.39,20.02h-85.75c-.32,0-.7-.06-1.11-.17-5.13-1.37-12.28-9.59-12.28-19.85v-156.84c0-5.49,1.11-12.9,6.43-16.98,4.18-3.2,10.47-3.9,17.72-1.96,6.04,1.62,15.48,5.8,26.17,16.56Z"/></g></svg>