<?xml version="1.0" encoding="UTF-8"?><svg id="Layer_6" xmlns="http://www.w3.org/2000/svg" viewBox="0 0 500 500"><defs><style>.cls-1{fill:#fff;}.cls-2{fill:#98a8da;}</style></defs><path class="cls-1" d="M136.17,83.09h215.11V371.06c0,28.42-23.07,51.48-51.48,51.48h-112.14c-28.42,0-51.48-23.07-51.48-51.48V83.09h0Z" transform="translate(214.35 -97.12) rotate(39.15)"/><path class="cls-2" d="M104.22,311.3c.58,5.71,3.36,10.85,7.81,14.47l86.96,70.8c4.9,3.99,10.06,4.83,13.53,4.83,6.51,0,12.59-2.89,16.69-7.92l148.11-181.91c2.44-4.81,3.92-10.32,2.6-15.87-1.7-7.15-7.89-13.45-17.46-17.73-7.96-3.57-21.87-7.36-42.92-5.14-23.03,2.43-41.22,.48-55.6-5.97-15.28-6.85-23.34-17.51-27.77-27.6l-127.25,156.29c-3.62,4.45-5.3,10.05-4.71,15.75Z"/></svg>