<?xml version="1.0" encoding="UTF-8"?><svg id="Layer_6" xmlns="http://www.w3.org/2000/svg" xmlns:xlink="http://www.w3.org/1999/xlink" viewBox="0 0 500 500"><defs><style>.cls-1,.cls-2{fill:#fff;}.cls-3{fill:#98a8da;}.cls-2{fill-rule:evenodd;stroke:#fff;stroke-miterlimit:10;stroke-width:5px;}.cls-4{fill:url(#linear-gradient);}</style><linearGradient id="linear-gradient" x1="80.41613" y1="287.00486" x2="394.10675" y2="287.00486" gradientTransform="matrix(1, 0, 0, 1, 0, 0)" gradientUnits="userSpaceOnUse"><stop offset="0" stop-color="#4d5c7c"/><stop offset="1" stop-color="#afc1e8"/></linearGradient></defs><path class="cls-1" d="M98.12412,39.40507H382.57647V420.21041c0,37.57533-30.5064,68.08173-68.08173,68.08173H166.20585c-37.57533,0-68.08173-30.5064-68.08173-68.08173V39.40507h0Z" transform="translate(220.55587 -92.51151) rotate(39.15236)"/><path class="cls-3" d="M55.86633,341.18336c.77313,7.5494,4.43992,14.3456,10.32481,19.13694l114.99339,93.62721c6.47788,5.27431,13.30838,6.38135,17.8977,6.38135,8.60696,0,16.65176-3.81796,22.07184-10.47502l195.85976-240.55542c3.23103-6.35584,5.17794-13.64277,3.43587-20.98458-2.24264-9.45289-10.44007-17.78035-23.08202-23.4495-10.52611-4.71999-28.91711-9.72989-56.75633-6.79201-30.45862,3.21489-54.50844,.63213-73.52391-7.89484-20.20087-9.05838-30.85806-23.15603-36.72019-36.49662L62.09755,320.35052c-4.79142,5.88514-7.00444,13.28344-6.23122,20.83284Z"/><path class="cls-4" d="M55.86633,341.18336c.77313,7.5494,4.43992,14.3456,10.32481,19.13694l114.99339,93.62721c6.47788,5.27431,13.30838,6.38135,17.8977,6.38135,8.60696,0,16.65176-3.81796,22.07184-10.47502l195.85976-240.55542c3.23103-6.35584,5.17794-13.64277,3.43587-20.98458-2.24264-9.45289-10.44007-17.78035-23.08202-23.4495-10.52611-4.71999-28.91711-9.72989-56.75633-6.79201-30.45862,3.21489-54.50844,.63213-73.52391-7.89484-20.20087-9.05838-30.85806-23.15603-36.72019-36.49662L62.09755,320.35052c-4.79142,5.88514-7.00444,13.28344-6.23122,20.83284Z"/><path class="cls-2" d="M323.43367,186.74003c-5.10747,.93722-8.27248,1.77316-10.52932,1.48477-5.84631-.74717-5.69189-6.15422-1.7969-8.38352,3.41213-1.95439,16.95044-7.04295,34.78381-5.74689,25.7341,1.87193,49.1294,15.59359,47.82767,20.0448-.49226,1.68326-6.10009-2.11011-19.40684-5.5133-18.19928-4.65535-32.96134-5.17284-50.87843-1.88585h0Z"/></svg>