<?xml version="1.0" encoding="utf-8"?>
<!-- Generator: Adobe Illustrator 26.3.1, SVG Export Plug-In . SVG Version: 6.00 Build 0)  -->
<svg version="1.1" id="Layer_2_00000078745653678120708090000015089671768254594990_" xmlns="http://www.w3.org/2000/svg"
	xmlns:xlink="http://www.w3.org/1999/xlink" x="0px" y="0px" viewBox="0 0 113.3 464"
	style="enable-background:new 0 0 113.3 464;" xml:space="preserve">
	<style type="text/css">
		.st0 {
			opacity: 0.3;
			fill: #FFFFFF;
			stroke: #FFFFFF;
			stroke-width: 23.3;
			stroke-miterlimit: 10;
			enable-background: new;
		}

		.st1 {
			opacity: 0.3;
		}

		.st2 {
			fill: #FFFFFF;
		}

		.st3 {
			fill: #B7BFC4;
		}

		.st4 {
			fill: #CCD1D7;
		}

		.st5 {
			fill: #F84F8E;
		}

		.st6 {
			fill: none;
		}

		.st7 {
			fill: #FCFCFC;
		}

		.st8 {
			font-family: 'ArialMT';
		}

		.st9 {
			font-size: 76px;
		}
	</style>
	<g id="Layer_2-2">
		<g id="b01">
			<path class="st0" d="M17.6,11.7h78v395.6c0,21.5-17.5,39-39,39l0,0c-21.5,0-39-17.5-39-39L17.6,11.7
			C17.7,11.7,17.7,11.7,17.6,11.7z" />
			<g class="st1">
				<path class="st2" d="M78.1,188.6H62.7v4h15.4V188.6L78.1,188.6z M51.7,188.6H36.3v4h15.4L51.7,188.6L51.7,188.6z M26.6,192.8
				c-0.2,0.3-0.5,0.6-0.6,0.9l0,0l0,0l0,0l0,0l0,0l0,0l0,0l0,0l0,0l0,0l0,0l0,0l0,0l0,0l0,0l0,0l0,0l0,0l0,0l0,0l0,0l0,0l0,0l0,0
				l0,0l0,0l0,0l0,0l0,0l0,0l0,0l0,0l0,0l0,0l0,0l0,0l0,0l0,0l0,0l0,0l0,0l0,0l0,0l0,0l0,0l0,0l0,0l0,0l0,0l0,0l0,0l0,0l0,0l0,0l0,0
				l0,0l0,0l0,0c-0.4,0.7-0.7,1.5-0.9,2.3l0,0l0,0l0,0l0,0l0,0l0,0l0,0l0,0l0,0l0,0l0,0l0,0l0,0l0,0l0,0l0,0l0,0l0,0l0,0l0,0l0,0
				l0,0l0,0l0,0l0,0l0,0l0,0l0,0l0,0l0,0l0,0l0,0l0,0l0,0l0,0l0,0l0,0l0,0l0,0l0,0l0,0l0,0l0,0l0,0l0,0l0,0l0,0l0,0l0,0l0,0l0,0l0,0
				l0,0l0,0l0,0l0,0l0,0l0,0l0,0l0,0l0,0l0,0l0,0l0,0l0,0l0,0l0,0l0,0l0,0l0,0l0,0l0,0l0,0l0,0l0,0l0,0l0,0l0,0l0,0l0,0l0,0l0,0l0,0
				l0,0l0,0l0,0l0,0l0,0l0,0l0,0l0,0l0,0l0,0l0,0l0,0l0,0l0,0l0,0l0,0l0,0l0,0l0,0l0,0l0,0l0,0l0,0l0,0l0,0l0,0l0,0l0,0l0,0l0,0l0,0
				l0,0l0,0l0,0l0,0l0,0l0,0l0,0l0,0l0,0l0,0l0,0l0,0l0,0l0,0l0,0l0,0l0,0l0,0l0,0l0,0l0,0l0,0l0,0l0,0l0,0l0,0l0,0l0,0l0,0l0,0l0,0
				l0,0l0,0l0,0l0,0l0,0l0,0l0,0l0,0l0,0l0,0l0,0l0,0l0,0l0,0l0,0l0,0l0,0l0,0l0,0l0,0l0,0l0,0l0,0l0,0l0,0l0,0l0,0l0,0l0,0l0,0l0,0
				l0,0l0,0l0,0l0,0l0,0l0,0l0,0l0,0l0,0l0,0l0,0l0,0l0,0l0,0l0,0l0,0l0,0l0,0l0,0l0,0l0,0l0,0l0,0l0,0l0,0l0,0l0,0l0,0l0,0l0,0l0,0
				l0,0l0,0l0,0l0,0l0,0l0,0l0,0l0,0l0,0l0,0l0,0l0,0l0,0l0,0l0,0l0,0l0,0l0,0l0,0l0,0l0,0l0,0l0,0l0,0l0,0l0,0l0,0l0,0l0,0l0,0l0,0
				l0,0l0,0l0,0l0,0l0,0l0,0l0,0l0,0l0,0l0,0l0,0l0,0l0,0l0,0l0,0l0,0l0,0l0,0l0,0l0,0l0,0l0,0l0,0l0,0l0,0l0,0l0,0l0,0l0,0l0,0l0,0
				l0,0l0,0l0,0l0,0l0,0l0,0l0,0l0,0l0,0l0,0l0,0l0,0l0,0l0,0l0,0l0,0l0,0l0,0l0,0l0,0l0,0l0,0l0,0l0,0l0,0l0,0v8.1h4V200
				c0-1.6,0.5-3.1,1.5-4.3l-3.1-2.5l0,0L26.6,192.8z M28.2,218.7h-4v15.4h4V218.7L28.2,218.7z M28.2,245.2h-4v15.4h4V245.2
				L28.2,245.2L28.2,245.2z M28.2,271.6h-4V287h4V271.6L28.2,271.6z M28.3,297.3l-3.9,0.7c0.2,1.1,0.6,2.2,1.1,3.2l0,0l0,0l0,0l0,0
				l0,0l0,0l0,0v0.1l0,0l0,0l0,0l0,0l0,0l0,0l0,0l0,0l0,0l0,0l0,0l0,0l0,0l0,0l0,0l0,0l0,0l0,0l0,0l0,0l0,0l0,0l0,0l0,0l0,0l0,0l0,0
				l0,0l0,0l0,0l0,0l0,0l0,0l0,0l0,0l0,0l0,0l0,0l0,0l0,0l0,0l0,0l0,0l0,0l0,0l0,0l0,0l0,0l0,0l0,0l0,0l0,0l0,0l0,0l0,0l0,0l0,0l0,0
				l0,0l0,0l0,0l0,0l0,0l0,0l0,0l0,0l0,0l0,0l0,0l0,0l0,0l0,0l0,0l0,0l0,0l0,0l0,0l0,0l0,0l0,0l0,0l0,0l0,0l0,0l0,0l0,0l0,0l0,0l0,0
				l0,0l0,0l0,0l0,0l0,0l0,0l0,0l0,0l0,0l0,0l0,0l0,0l0,0l0,0l0,0l0,0l0,0l0,0l0,0l0,0l0,0l0,0l0,0l0,0l0,0l0,0l0,0l0,0l0,0l0,0l0,0
				l0,0l0,0l0,0l0,0l0,0l0,0l0,0l0,0l0,0l0,0l0,0l0,0l0,0l0,0l0,0l0,0l0,0l0,0l0,0l0,0l0,0l0,0l0,0l0,0l0,0l0,0l0,0l0,0l0,0l0,0l0,0
				l0,0l0,0l0,0l0,0l0,0l0,0l0,0l0,0l0,0l0,0l0,0l0,0l0,0l0,0l0,0l0,0l0,0l0,0l0,0l0,0l0,0l0,0l0,0l0,0l0,0l0,0l0,0l0,0l0,0l0,0l0,0
				l0,0l0,0l0,0l0,0l0,0l0,0l0,0l0,0l0,0l0,0l0,0l0,0l0,0l0,0l0,0l0,0l0,0l0,0l0,0l0,0l0,0l0,0l0,0l0,0l0,0l0,0l0,0l0,0l0,0l0,0l0,0
				l0,0l0,0l0,0l0,0l0,0l0,0l0,0l0,0l0,0l0,0l0,0l0,0l0,0l0,0l0,0l0,0l0,0l0,0l0,0l0,0l0,0l0,0l0,0l0,0l0,0l0,0l0,0l0,0l0,0l0,0l0,0
				l0,0l0,0l0,0l0,0l0,0l0,0l0,0l0,0l0,0l0,0l0,0l0,0l0,0l0,0l0,0l0,0l0,0l0,0l0,0l0,0l0,0l0.1,0.1l0,0c1.8,1.5,4,2.4,6.5,2.5h0.4
				v-4c-3.4,0-6.3-2.5-6.9-5.8l0,0L28.3,297.3z M61.7,303.1H46.2v4h15.4v-4H61.7z M83.6,300.4c-1.3,1.7-3.3,2.7-5.5,2.7h-5.4v4h6
				l0,0h0.2l0,0h0.2l0,0h0.1l0,0h0.1h0.1h0.1h0.1l0,0c2.5-0.3,4.8-1.5,6.5-3.3l0,0l0,0l0,0l0,0l0,0l0,0l0,0l0,0l0,0l0,0l0,0l0,0l0,0
				l0,0l0,0l0,0l0,0l0,0l0,0l0,0l0,0l0,0l0,0l0,0l0,0l0,0l0,0l0,0l0,0c0.1-0.2,0.3-0.3,0.4-0.5L83.6,300.4L83.6,300.4L83.6,300.4z
				 M89.1,277h-4v15.4h4V277L89.1,277z M89.1,250.6h-4V266h4V250.6L89.1,250.6L89.1,250.6z M89.1,224.2h-4v15.4h4V224.2L89.1,224.2z
				 M88.9,197.8l-3.9,0.7c0.1,0.4,0.1,0.8,0.1,1.2v13.6h4v-13.6l0,0l0,0l0,0l0,0l0,0l0,0l0,0l0,0l0,0l0,0l0,0l0,0l0,0l0,0l0,0l0,0
				l0,0l0,0l0,0l0,0l0,0l0,0l0,0l0,0l0,0l0,0l0,0l0,0l0,0l0,0l0,0l0,0l0,0l0,0l0,0l0,0l0,0l0,0l0,0l0,0l0,0l0,0l0,0l0,0l0,0l0,0l0,0
				l0,0l0,0l0,0l0,0l0,0l0,0l0,0l0,0l0,0l0,0l0,0l0,0l0,0l0,0l0,0l0,0l0,0l0,0l0,0l0,0l0,0l0,0l0,0l0,0l0,0l0,0l0,0l0,0l0,0l0,0l0,0
				l0,0l0,0l0,0l0,0l0,0l0,0l0,0l0,0l0,0l0,0l0,0l0,0l0,0l0,0l0,0l0,0l0,0l0,0l0,0l0,0l0,0l0,0l0,0l0,0l0,0l0,0l0,0l0,0l0,0l0,0l0,0
				l0,0l0,0l0,0l0,0l0,0l0,0l0,0l0,0l0,0l0,0l0,0l0,0l0,0l0,0l0,0l0,0l0,0l0,0l0,0l0,0l0,0l0,0l0,0l0,0l0,0l0,0l0,0l0,0l0,0l0,0l0,0
				l0,0V198l0,0c0-0.1,0-0.3-0.1-0.4l0,0L88.9,197.8z M78.1,188.6v4c0.9,0,1.9,0.2,2.7,0.6l1.6-3.7c-1.1-0.5-2.3-0.8-3.6-0.8h-0.3
				l0,0L78.1,188.6L78.1,188.6z" />
				<g id="slot1_add">
					<path class="st2" d="M37.3,267.1c5.3,0,11.6,3.2,17.2,8.9c7.3,7.3,14.3,11.1,20.9,11.1c4,0,7.3-1.4,9.8-3v12.1c0,3.9-3.1,7-7,7
					h-43c-3.9,0-7-3.1-7-7v-18.3C28.2,271,31.5,267.1,37.3,267.1 M37.3,263.1c-7.5,0-13.1,5.2-13.1,14.8v18.3c0,6.1,4.9,11,11,11
					h42.9c6.1,0,11-4.9,11-11v-18.3c0-1.1-0.2-1.6-0.5-1.6c-1.3,0-5.4,6.8-13.2,6.8c-4.6,0-10.6-2.4-18-9.9
					C50.5,266.3,43.3,263.1,37.3,263.1L37.3,263.1L37.3,263.1z" />
					<path class="st2" d="M67.9,240.3h-4c-1.9,0-3.5-1.6-3.5-3.5v-4.2c0-1.9-1.6-3.5-3.5-3.5h-0.4c-1.9,0-3.5,1.6-3.5,3.5v4.2
					c0,1.9-1.6,3.5-3.5,3.5h-4c-1.9,0-3.5,1.6-3.5,3.5l0,0c0,1.9,1.6,3.5,3.5,3.5h4c1.9,0,3.5,1.6,3.5,3.5v4.2
					c0,1.9,1.6,3.5,3.5,3.5h0.4c1.9,0,3.5-1.6,3.5-3.5v-4.2c0-1.9,1.6-3.5,3.5-3.5h4c1.9,0,3.5-1.6,3.5-3.5l0,0
					C71.4,241.9,69.8,240.3,67.9,240.3z" />
				</g>
			</g>
			<rect x="6" class="st3" width="101.3" height="12" />
			<path class="st4" d="M56.7,464C25.4,464,0,438.5,0,407.3V0.1h12v407.2c0,24.6,20,44.7,44.7,44.7s44.7-20,44.7-44.7V0.1h12v407.2
			C113.3,438.5,87.9,464,56.7,464z" />
			<g class="st1">
				<g>
					<path class="st2" d="M28.4,166.1l-3.9,0.7c0.8,4.5,4.3,8.1,8.7,8.9l0,0h0.1l0,0l0,0l0,0l0,0l0,0l0,0l0,0l0,0l0,0l0,0l0,0l0,0
					l0,0l0,0l0,0l0,0l0,0l0,0l0,0l0,0l0,0l0,0l0,0l0,0l0,0l0,0l0,0l0,0l0,0l0,0l0,0l0,0l0,0l0,0l0,0l0,0l0,0l0,0l0,0l0,0l0,0l0,0
					l0,0l0,0l0,0l0,0l0,0l0,0l0,0l0,0l0,0l0,0l0,0l0,0l0,0l0,0l0,0l0,0l0,0l0,0l0,0l0,0l0,0l0,0l0,0l0,0l0,0l0,0l0,0l0,0l0,0l0,0
					l0,0l0,0l0,0l0,0l0,0l0,0l0,0l0,0l0,0l0,0l0,0l0,0l0,0l0,0l0,0l0,0l0,0l0,0l0,0l0,0l0,0l0,0l0,0l0,0l0,0l0,0l0,0l0,0l0,0l0,0
					l0,0l0,0l0,0l0,0l0,0l0,0l0,0l0,0l0,0l0,0l0,0l0,0l0,0l0,0l0,0l0,0l0,0l0,0l0,0l0,0l0,0l0,0l0,0l0,0l0,0l0,0l0,0l0,0l0,0l0,0
					l0,0l0,0l0,0l0,0l0,0l0,0l0,0l0,0l0,0l0,0l0,0l0,0l0,0l0,0l0,0l0,0l0,0l0,0l0,0l0,0l0,0l0,0l0,0l0,0l0,0l0,0l0,0l0,0l0,0l0,0
					l0,0l0,0l0,0l0,0l0,0l0,0l0,0l0,0l0,0l0,0l0,0l0,0l0,0l0,0l0,0l0,0l0,0l0,0l0,0l0,0l0,0l0,0l0,0l0,0l0,0l0,0l0,0l0,0l0,0l0,0
					l0,0l0,0l0,0l0,0l0,0l0,0l0,0l0,0l0,0l0,0l0,0l0,0l0,0l0,0l0,0l0,0l0,0l0,0l0,0l0,0l0,0l0,0l0,0l0,0l0,0l0,0l0,0l0,0l0,0l0,0
					l0,0l0,0l0,0v-4C31.8,171.9,28.9,169.5,28.4,166.1z" />
					<path class="st2" d="M46.3,175.9h10.4c2.8,0,5,0,5,0v-4H46.3V175.9z" />
					<rect x="36.3" y="57.4" class="st2" width="15.4" height="4" />
					<rect x="24.3" y="140.3" class="st2" width="4" height="15.4" />
					<path class="st2"
						d="M28.3,68.4c0-1.6,0.5-3.1,1.5-4.3l-3.1-2.5c-0.4,0.5-0.7,0.9-1,1.4l0,0l0,0l0,0l0,0l0,0l0,0l0,0l0,0l0,0
					l0,0l0,0l0,0l0,0l0,0l0,0l0,0l0,0l0,0l0,0l0,0l0,0l0,0l0,0l0,0l0,0l0,0l0,0l0,0l0,0l0,0l0,0l0,0l0,0l0,0l0,0l0,0l0,0l0,0l0,0
					l0,0l0,0l0,0l0,0l0,0l0,0l0,0l0,0l0,0l0,0l0,0l0,0l0,0l0,0l0,0l0,0l0,0l0,0l0,0l0,0l0,0l0,0l0,0l0,0l0,0l0,0l0,0l0,0l0,0l0,0
					l0,0l0,0l0,0l0,0l0,0l0,0l0,0l0,0l0,0l0,0l0,0l0,0l0,0l0,0l0,0l0,0l0,0l0,0l0,0l0,0l0,0l0,0l0,0l0,0l0,0l0,0l0,0l0,0l0,0l0,0
					l0,0l0,0l0,0l0,0l0,0l0,0l0,0l0,0l0,0l0,0l0,0l0,0l0,0l0,0l0,0l0,0l0,0l0,0l0,0l0,0l0,0l0,0l0,0l0,0l0,0l0,0l0,0l0,0l0,0l0,0
					l0,0l0,0l0,0l0,0l0,0l0,0l0,0l0,0l0,0l0,0l0,0l0,0l0,0l0,0l0,0l0,0l0,0l0,0l0,0l0,0l0,0l0,0l0,0l0,0l0,0l0,0l0,0l0,0l0,0l0,0
					l0,0l0,0l0,0l0,0l0,0l0,0l0,0l0,0l0,0l0,0l0,0l0,0l0,0l0,0l0,0l0,0l0,0l0,0l0,0l0,0l0,0l0,0l0,0l0,0l0,0l0,0l0,0l0,0l0,0l0,0
					l0,0l0,0l0,0l0,0l0,0l0,0l0,0l0,0l0,0l0,0l0,0l0,0l0,0l0,0l0,0l0,0l0,0l0,0l0,0l0,0l0,0l0,0l0,0l0,0l0,0l0,0l0,0l0,0l0,0l0,0
					l0,0l0,0l0,0l0,0l0,0l0,0l0,0l0,0l0,0l0,0l0,0l0,0l0,0l0,0l0,0l0,0l0,0v0.1l0,0v0.1l0,0l0,0l0,0l0,0l0,0v0.1l0,0l0,0l0,0l0,0
					l0,0l0,0l0,0l0,0l0,0l0,0l0,0l0,0l0,0l0,0l0,0l0,0l0,0l0,0l0,0l0,0l0,0l0,0l0,0l0,0l0,0l0,0l0,0l0,0l0,0l0,0l0,0l0,0l0,0
					c0,0,0,0,0,0.1l0,0l0,0l0,0l0,0l0,0l0,0l0,0l0,0l0,0l0,0l0,0l0,0l0,0l0,0l0,0l0,0l0,0l0,0l0,0l0,0l0,0l0,0l0,0l0,0l0,0l0,0l0,0
					l0,0l0,0l0,0l0,0l0,0l0,0l0,0l0,0l0,0l0,0l0,0l0,0l0,0l0,0l0,0l0,0l0,0l0,0l0,0l0,0l0,0l0,0l0,0l0,0l0,0l0,0l0,0l0,0l0,0l0,0
					l0,0l0,0l0,0l0,0l0,0l0,0l0,0l0,0l0,0l0,0l0,0l0,0l0,0l0,0l0,0l0,0l0,0l0,0l0,0l0,0l0,0l0,0l0,0l0,0l0,0l0,0l0,0l0,0l0,0l0,0
					l0,0l0,0l0,0l0,0l0,0l0,0l0,0l0,0l0,0l0,0l0,0l0,0l0,0l0,0l0,0l0,0l0,0l0,0l0,0l0,0l0,0l0,0l0,0l0,0l0,0l0,0l0,0l0,0l0,0l0,0
					l0,0l0,0l0,0l0,0l0,0l0,0l0,0l0,0l0,0l0,0l0,0l0,0l0,0l0,0l0,0l0,0l0,0l0,0l0,0l0,0l0,0l0,0l0,0l0,0l0,0l0,0l0,0l0,0l0,0l0,0
					l0,0l0,0l0,0l0,0l0,0l0,0l0,0l0,0l0,0l0,0l0,0l0,0l0,0l0,0l0,0l0,0l0,0l0,0l0,0l0,0l0,0l0,0l0,0l0,0l0,0l0,0l0,0l0,0l0,0l0,0
					l0,0l0,0l0,0l0,0l0,0l0,0l0,0l0,0l0,0l0,0l0,0l0,0l0,0l0,0l0,0l0,0l0,0l0,0l0,0l0,0l0,0l0,0l0,0l0,0l0,0l0,0l0,0l0,0l0,0l0,0
					l0,0l0,0l0,0l0,0l0,0l0,0l0,0l0,0l0,0l0,0l0,0l0,0l0,0l0,0l0,0l0,0l0,0l0,0l0,0l0,0l0,0l0,0l0,0l0,0l0,0l0,0l0,0l0,0l0,0l0,0
					l0,0l0,0l0,0l0,0l0,0l0,0l0,0l0,0l0,0l0,0l0,0l0,0l0,0l0,0l0,0l0,0l0,0l0,0l0,0l0,0l0,0l0,0l0,0l0,0l0,0l0,0l0,0l0,0l0,0l0,0
					l0,0l0,0l0,0l0,0l0,0l0,0l0,0l0,0l0,0l0,0l0,0l0,0l0,0l0,0l0,0l0,0l0,0l0,0l0,0l0,0v8.1h4v-3.1C29.7,68.4,28.3,68.4,28.3,68.4z" />
					<rect x="24.3" y="87.5" class="st2" width="4" height="15.4" />
					<rect x="24.3" y="113.9" class="st2" width="4" height="15.4" />
					<rect x="85.1" y="92.9" class="st2" width="4" height="15.4" />
					<rect x="85.1" y="119.4" class="st2" width="4" height="15.4" />
					<path class="st2" d="M89.1,68.3L89.1,68.3L89.1,68.3L89.1,68.3L89.1,68.3L89.1,68.3L89.1,68.3L89.1,68.3L89.1,68.3L89.1,68.3
					L89.1,68.3C89.1,68.2,89.1,68.2,89.1,68.3C89.1,68.2,89.1,68.2,89.1,68.3L89.1,68.3L89.1,68.3L89.1,68.3L89.1,68.3L89.1,68.3
					L89.1,68.3L89.1,68.3L89.1,68.3L89.1,68.3L89.1,68.3L89.1,68.3L89.1,68.3L89.1,68.3L89.1,68.3L89.1,68.3L89.1,68.3L89.1,68.3
					L89.1,68.3L89.1,68.3L89.1,68.3L89.1,68.3L89.1,68.3L89.1,68.3L89.1,68.3L89.1,68.3L89.1,68.3L89.1,68.3L89.1,68.3L89.1,68.3
					L89.1,68.3L89.1,68.3L89.1,68.3L89.1,68.3L89.1,68.3L89.1,68.3L89.1,68.3L89.1,68.3L89.1,68.3L89.1,68.3L89.1,68.3L89.1,68.3
					L89.1,68.3L89.1,68.3L89.1,68.3L89.1,68.3L89.1,68.3L89.1,68.3L89.1,68.3L89.1,68.3L89.1,68.3L89.1,68.3L89.1,68.3L89.1,68.3
					L89.1,68.3L89.1,68.3L89.1,68.3L89.1,68.3L89.1,68.3L89.1,68.3L89.1,68.3L89.1,68.3L89.1,68.3L89.1,68.3L89.1,68.3L89.1,68.3
					L89.1,68.3L89.1,68.3L89.1,68.3L89.1,68.3L89.1,68.3L89.1,68.3L89.1,68.3L89.1,68.3L89.1,68.3L89.1,68.3L89.1,68.3L89.1,68.3
					L89.1,68.3L89.1,68.3L89.1,68.3L89.1,68.3L89.1,68.3L89.1,68.3L89.1,68.3L89.1,68.3L89.1,68.3L89.1,68.3L89.1,68.3L89.1,68.3
					L89.1,68.3L89.1,68.3L89.1,68.3L89.1,68.3L89.1,68.3L89.1,68.3L89.1,68.3L89.1,68.3L89.1,68.3L89.1,68.3L89.1,68.3L89.1,68.3
					L89.1,68.3c0-0.4-0.1-0.7-0.1-1l-4-0.1c0.1,0.4,0.1,0.8,0.1,1.2V82h4V68.3C89.1,68.4,89.1,68.4,89.1,68.3
					C89.1,68.4,89.1,68.4,89.1,68.3L89.1,68.3z" />
					<rect x="85.1" y="145.8" class="st2" width="4" height="15.4" />
					<path class="st2" d="M78.1,171.9h-5.4v4h5.4l0,0l0,0l0,0l0,0l0,0l0,0l0,0l0,0l0,0l0,0l0,0l0,0l0,0l0,0l0,0l0,0l0,0l0,0l0,0l0,0
					l0,0l0,0l0,0l0,0l0,0l0,0l0,0l0,0l0,0l0,0l0,0l0,0l0,0l0,0l0,0l0,0l0,0l0,0l0,0l0,0l0,0l0,0l0,0l0,0l0,0l0,0l0,0l0,0l0,0l0,0
					l0,0l0,0l0,0l0,0l0,0l0,0l0,0l0,0l0,0l0,0l0,0l0,0l0,0l0,0l0,0l0,0l0,0l0,0l0,0l0,0l0,0l0,0l0,0l0,0l0,0l0,0l0,0l0,0l0,0l0,0
					l0,0l0,0l0,0l0,0l0,0l0,0l0,0l0,0l0,0l0,0l0,0l0,0l0,0l0,0l0,0l0,0l0,0l0,0l0,0l0,0l0,0l0,0l0,0l0,0l0,0l0,0l0,0l0,0l0,0l0,0
					l0,0l0,0l0,0l0,0l0,0l0,0l0,0l0,0l0,0l0,0l0,0l0,0l0,0l0,0l0,0l0,0l0,0l0,0l0,0l0,0l0,0l0,0l0,0l0,0l0,0l0,0l0,0l0,0l0,0l0,0
					l0,0l0,0l0,0l0,0l0,0l0,0l0,0l0,0l0,0l0,0l0,0l0,0l0,0l0,0l0,0l0,0l0,0l0,0l0,0l0,0l0,0l0,0l0,0l0,0l0,0l0,0l0,0l0,0l0,0l0,0
					l0,0l0,0l0,0l0,0l0,0l0,0l0,0l0,0l0,0l0,0l0,0l0,0l0,0l0,0l0,0l0,0l0,0l0,0l0,0l0,0l0,0l0,0l0,0l0,0l0,0l0,0l0,0l0,0l0,0l0,0
					l0,0l0,0l0,0l0,0l0,0l0,0l0,0l0,0l0,0l0,0l0,0l0,0l0,0l0,0l0,0l0,0l0,0l0,0l0,0l0,0l0,0l0,0l0,0l0,0l0,0l0,0l0,0l0,0l0,0l0,0
					l0,0l0,0l0,0l0,0l0,0l0,0l0,0l0,0l0,0l0,0l0,0l0,0l0,0l0,0l0,0l0,0l0,0l0,0l0,0l0,0l0,0l0,0l0,0l0,0l0,0l0,0l0,0l0,0l0,0l0,0
					l0,0l0,0l0,0l0,0l0,0l0,0l0,0l0,0l0,0l0,0l0,0l0,0l0,0l0,0l0,0l0,0l0,0l0,0l0,0l0,0l0,0l0,0l0,0l0,0l0,0l0,0l0,0l0,0l0,0l0,0
					l0,0l0,0l0,0l0,0l0,0l0,0l0,0l0,0l0,0l0,0l0,0l0,0l0,0l0,0l0,0l0,0l0,0l0,0l0,0l0,0l0,0l0,0l0,0l0,0l0,0l0,0l0,0l0,0l0,0l0,0
					l0,0l0,0l0,0l0,0l0,0l0,0l0,0l0,0l0,0l0,0l0,0l0,0l0,0l0,0l0,0l0,0l0,0l0,0l0,0l0,0l0,0l0,0l0,0l0,0l0,0l0,0l0,0l0,0l0,0l0,0
					l0,0l0,0l0,0l0,0l0,0l0,0l0,0l0,0l0,0l0,0l0,0l0,0l0,0l0,0l0,0l0,0l0,0l0,0l0,0l0,0l0,0l0,0l0,0l0,0l0,0l0,0l0,0l0,0l0,0l0,0
					l0,0l0,0l0,0l0,0l0,0l0,0l0,0l0,0l0,0l0,0l0,0l0,0l0,0l0,0l0,0l0,0l0,0l0,0l0,0l0,0l0,0l0,0l0,0l0,0l0,0l0,0l0,0l0,0l0,0l0,0
					l0,0l0,0l0,0l0,0l0,0l0,0l0,0l0,0l0,0l0,0l0,0l0,0l0,0l0,0l0,0l0,0l0,0l0,0l0,0l0,0l0,0l0,0l0,0l0,0l0,0l0,0l0,0l0,0l0,0l0,0
					l0,0l0,0l0,0l0,0l0,0l0,0l0,0l0,0l0,0l0,0l0,0l0,0l0,0l0,0l0,0l0,0l0,0l0,0l0,0l0,0l0,0l0,0l0,0l0,0l0,0l0,0l0,0l0,0l0,0l0,0
					l0,0l0,0l0,0l0,0l0,0l0,0l0,0l0,0l0,0l0,0l0,0l0,0l0,0l0,0l0,0l0,0l0,0l0,0l0,0l0,0l0,0l0,0l0,0l0,0l0,0l0,0l0,0l0,0l0,0l0,0
					l0,0l0,0l0,0l0,0l0,0l0,0l0,0l0,0l0,0l0,0l0,0l0,0l0,0l0,0l0,0l0,0l0,0l0,0l0,0l0,0l0,0l0,0l0,0l0,0l0,0l0,0l0,0l0,0l0,0l0,0
					l0,0l0,0l0,0l0,0l0,0l0,0l0,0l0,0l0,0l0,0l0,0l0,0l0,0l0,0l0,0l0,0l0,0l0,0l0,0l0,0l0,0l0,0l0,0l0,0l0,0l0,0l0,0l0,0l0,0l0,0
					l0,0l0,0l0,0l0,0l0,0l0,0l0,0l0,0l0,0l0,0l0,0l0,0l0,0l0,0l0,0l0,0l0,0l0,0l0,0l0,0l0,0l0,0l0,0l0,0l0,0l0,0l0,0l0,0l0,0l0,0
					l0,0l0,0l0,0l0,0l0,0l0,0l0,0l0,0l0,0l0,0l0,0l0,0l0,0l0,0l0,0l0,0l0,0l0,0l0,0l0,0l0,0l0,0l0,0l0,0l0,0l0,0l0,0l0,0l0,0l0,0
					l0,0l0,0l0,0l0,0l0,0l0,0l0,0l0,0l0,0l0,0l0,0l0,0l0,0l0,0l0,0l0,0l0,0l0,0l0,0l0,0l0,0l0,0l0,0l0,0l0,0l0,0l0,0l0,0l0,0l0,0
					l0,0l0,0l0,0l0,0l0,0l0,0l0,0l0,0l0,0l0,0l0,0l0,0l0,0l0,0l0,0l0,0l0,0l0,0l0,0l0,0l0,0l0,0l0,0l0,0l0,0l0,0l0,0l0,0l0,0l0,0
					l0,0l0,0l0,0c0,0,0,0,0.1,0l0,0h0.1l0,0l0,0l0,0l0,0l0,0c0,0,0,0,0.1,0l0,0c1.9-0.7,3.5-1.9,4.7-3.5l-3.1-2.5
					C82.3,170.9,80.3,171.9,78.1,171.9z" />
					<path class="st2" d="M80.9,61.9l1.6-3.7c-0.2-0.1-0.4-0.2-0.6-0.2l0,0l0,0l0,0l0,0l0,0l0,0l0,0l0,0l0,0l0,0l0,0l0,0l0,0l0,0l0,0
					l0,0c-0.6-0.2-1.3-0.4-2-0.5l0,0l0,0l0,0l0,0l0,0l0,0l0,0l0,0l0,0l0,0l0,0l0,0l0,0l0,0l0,0l0,0l0,0l0,0l0,0l0,0l0,0l0,0l0,0l0,0
					l0,0l0,0l0,0l0,0l0,0l0,0l0,0l0,0l0,0l0,0l0,0l0,0l0,0l0,0l0,0l0,0l0,0l0,0l0,0l0,0l0,0l0,0l0,0l0,0l0,0l0,0l0,0l0,0l0,0l0,0
					l0,0l0,0l0,0l0,0l0,0l0,0l0,0l0,0l0,0l0,0l0,0l0,0l0,0l0,0l0,0l0,0l0,0l0,0l0,0l0,0l0,0l0,0l0,0l0,0l0,0l0,0l0,0l0,0l0,0l0,0
					l0,0l0,0l0,0l0,0l0,0l0,0l0,0l0,0l0,0l0,0l0,0l0,0l0,0l0,0l0,0l0,0l0,0l0,0l0,0l0,0l0,0l0,0l0,0l0,0l0,0l0,0l0,0l0,0l0,0l0,0
					l0,0l0,0l0,0l0,0l0,0l0,0l0,0l0,0l0,0l0,0l0,0l0,0l0,0l0,0l0,0l0,0l0,0l0,0l0,0l0,0l0,0l0,0l0,0l0,0l0,0l0,0l0,0l0,0l0,0l0,0
					l0,0l0,0l0,0l0,0l0,0l0,0l0,0l0,0l0,0l0,0l0,0l0,0l0,0l0,0l0,0l0,0l0,0l0,0l0,0l0,0l0,0l0,0l0,0l0,0l0,0l0,0l0,0l0,0l0,0l0,0
					l0,0l0,0l0,0l0,0l0,0l0,0l0,0l0,0l0,0l0,0l0,0l0,0l0,0l0,0l0,0l0,0l0,0l0,0l0,0l0,0l0,0l0,0l0,0l0,0l0,0l0,0l0,0l0,0l0,0l0,0
					l0,0l0,0l0,0l0,0l0,0l0,0l0,0l0,0l0,0l0,0l0,0l0,0l0,0l0,0l0,0l0,0l0,0l0,0l0,0l0,0l0,0l0,0l0,0l0,0l0,0l0,0l0,0l0,0l0,0l0,0
					l0,0l0,0l0,0l0,0l0,0l0,0l0,0l0,0l0,0l0,0l0,0l0,0l0,0l0,0l0,0l0,0l0,0l0,0l0,0l0,0l0,0l0,0l0,0l0,0l0,0l0,0l0,0l0,0l0,0l0,0
					l0,0l0,0l0,0l0,0l0,0l0,0l0,0l0,0l0,0l0,0l0,0l0,0l0,0l0,0l0,0l0,0l0,0l0,0l0,0l0,0l0,0l0,0l0,0l0,0l0,0l0,0l0,0l0,0l0,0l0,0
					l0,0l0,0l0,0l0,0l0,0l0,0l0,0l0,0l0,0l0,0H62.7v4h15.4C79.1,61.4,80,61.6,80.9,61.9z" />
				</g>
				<g id="slot2_add">
					<path class="st2" d="M37.3,135.8c5.3,0,11.6,3.2,17.2,8.9c7.3,7.3,14.3,11.1,20.9,11.1c4,0,7.3-1.4,9.8-3v12.1c0,3.9-3.1,7-7,7
					h-43c-3.9,0-7-3.1-7-7v-18.3C28.2,139.7,31.5,135.8,37.3,135.8 M37.3,131.8c-7.5,0-13.1,5.2-13.1,14.8v18.3c0,6.1,4.9,11,11,11
					h42.9c6.1,0,11-4.9,11-11v-18.3c0-1.1-0.2-1.6-0.5-1.6c-1.3,0-5.4,6.8-13.2,6.8c-4.6,0-10.6-2.4-18-9.9
					C50.5,135,43.3,131.8,37.3,131.8L37.3,131.8L37.3,131.8z" />
					<path class="st2" d="M67.9,109h-4c-1.9,0-3.5-1.6-3.5-3.5v-4.2c0-1.9-1.6-3.5-3.5-3.5h-0.4c-1.9,0-3.5,1.6-3.5,3.5v4.2
					c0,1.9-1.6,3.5-3.5,3.5h-4c-1.9,0-3.5,1.6-3.5,3.5l0,0c0,1.9,1.6,3.5,3.5,3.5h4c1.9,0,3.5,1.6,3.5,3.5v4.2
					c0,1.9,1.6,3.5,3.5,3.5h0.4c1.9,0,3.5-1.6,3.5-3.5v-4.2c0-1.9,1.6-3.5,3.5-3.5h4c1.9,0,3.5-1.6,3.5-3.5l0,0
					C71.4,110.6,69.8,109,67.9,109z" />
				</g>
			</g>
			<g class="st1">
				<path class="st2" d="M78.1,319.9H62.7v4h15.4V319.9L78.1,319.9z M51.7,319.9H36.3v4h15.4L51.7,319.9L51.7,319.9z M26.6,324.1
				c-0.1,0.1-0.2,0.3-0.3,0.4l0,0l0,0l0,0l0,0l0,0l0,0l0,0l0,0l0,0l0,0l0,0l0,0l0,0l0,0l0,0l0,0l0,0l0,0l0,0l0,0l0,0l0,0l0,0l0,0
				l0,0l0,0l0,0l0,0l0,0l0,0l0,0l0,0l0,0l0,0l0,0l0,0l0,0l0,0l0,0l0,0l0,0l0,0l0,0l0,0l0,0l0,0l0,0l0,0l0,0l0,0l0,0l0,0l0,0l0,0l0,0
				l0,0l0,0c-0.7,1.2-1.2,2.5-1.5,3.9l0,0l0,0l0,0l0,0l0,0v0.1l0,0l0,0l0,0l0,0l0,0l0,0l0,0l0,0l0,0l0,0l0,0l0,0l0,0l0,0l0,0l0,0
				l0,0l0,0l0,0l0,0l0,0l0,0l0,0l0,0l0,0l0,0l0,0l0,0l0,0l0,0l0,0l0,0l0,0l0,0l0,0l0,0l0,0l0,0l0,0l0,0l0,0l0,0l0,0l0,0l0,0l0,0l0,0
				l0,0l0,0l0,0l0,0l0,0l0,0l0,0l0,0l0,0l0,0l0,0l0,0l0,0l0,0l0,0l0,0l0,0l0,0l0,0l0,0l0,0l0,0l0,0l0,0l0,0l0,0l0,0l0,0l0,0l0,0l0,0
				l0,0l0,0l0,0l0,0l0,0l0,0l0,0l0,0l0,0l0,0l0,0l0,0l0,0l0,0l0,0l0,0l0,0l0,0l0,0l0,0l0,0l0,0l0,0l0,0l0,0l0,0l0,0l0,0l0,0l0,0l0,0
				l0,0l0,0l0,0l0,0l0,0l0,0l0,0l0,0l0,0l0,0l0,0l0,0l0,0l0,0l0,0l0,0l0,0l0,0l0,0l0,0l0,0l0,0l0,0l0,0l0,0l0,0l0,0l0,0l0,0l0,0v8.1
				h4v-8.1c0-1.6,0.5-3.1,1.5-4.3l-3.1-2.5l0,0L26.6,324.1z M28.2,350h-4v15.4h4V350L28.2,350z M28.2,376.5h-4v15.4h4V376.5
				L28.2,376.5z M28.2,402.9h-4v3.1l0,0l0,0l0,0l0,0l0,0l0,0l0,0l0,0l0,0l0,0l0,0l0,0l0,0l0,0l0,0l0,0l0,0l0,0l0,0l0,0l0,0l0,0l0,0
				l0,0l0,0l0,0l0,0l0,0l0,0l0,0l0,0l0,0l0,0l0,0l0,0l0,0l0,0l0,0l0,0l0,0l0,0l0,0l0,0l0,0l0,0l0,0l0,0l0,0l0,0l0,0l0,0l0,0l0,0l0,0
				l0,0l0,0l0,0l0,0l0,0l0,0l0,0l0,0l0,0l0,0l0,0l0,0l0,0l0,0l0,0v0.1l0,0l0,0l0,0l0,0l0,0l0,0l0,0l0,0l0,0l0,0l0,0l0,0l0,0l0,0l0,0
				l0,0l0,0l0,0l0,0l0,0l0,0l0,0l0,0l0,0l0,0l0,0l0,0l0,0l0,0l0,0l0,0v0.1l0,0l0,0l0,0l0,0l0,0l0,0l0,0l0,0l0,0l0,0l0,0l0,0l0,0l0,0
				l0,0l0,0l0,0l0,0l0,0l0,0l0,0l0,0l0,0l0,0l0,0l0,0l0,0l0,0l0,0l0,0l0,0v0.1l0,0l0,0l0,0l0,0l0,0l0,0l0,0l0,0l0,0l0,0l0,0l0,0l0,0
				l0,0l0,0l0,0l0,0l0,0l0,0l0,0l0,0l0,0l0,0l0,0l0,0l0,0l0,0v0.1l0,0l0,0l0,0l0,0l0,0l0,0l0,0l0,0l0,0l0,0l0,0l0,0l0,0l0,0l0,0l0,0
				l0,0l0,0l0,0l0,0l0,0l0,0l0,0l0,0l0,0c0,0.1,0,0.2,0,0.2l0,0l0,0l0,0l0,0l0,0l0,0l0,0l0,0l0,0l0,0l0,0l0,0l0,0l0,0l0,0
				c0.3,3.1,1,6.1,2.1,8.9L30,414c-1.3-3.3-2-6.9-2-10.5V403l0,0L28.2,402.9z M35.3,424.7l-3,2.6c0.3,0.4,0.6,0.7,1,1.1l0,0l0.1,0.1
				l0,0l0,0l0,0l0,0l0,0l0,0l0,0l0,0l0,0l0,0l0,0l0,0l0,0l0,0l0,0l0,0l0,0l0,0l0,0l0,0l0,0l0,0l0,0l0,0l0,0l0,0l0,0l0,0l0,0l0,0l0,0
				l0,0l0,0l0,0l0,0l0,0l0,0l0,0l0,0l0,0l0,0l0,0l0,0l0,0l0,0l0,0l0,0l0,0l0,0l0,0l0,0l0,0l0,0l0,0l0,0l0,0l0,0l0,0l0,0l0,0l0,0l0,0
				l0,0l0,0l0,0l0,0l0,0l0,0l0,0l0,0l0,0l0,0l0,0l0,0l0,0l0,0l0,0l0,0l0,0l0,0l0,0l0,0l0,0l0,0l0,0l0,0l0,0l0,0l0,0l0,0l0,0l0,0l0,0
				l0,0l0,0l0,0c2.6,2.5,5.7,4.5,9,6.1l0,0l0,0l0,0h0.1l0,0l0,0l0,0l0,0l0,0l0,0l0,0l0,0l0,0l0,0l0,0l0,0l0,0l0,0l0,0l0,0l0,0l0,0
				l0,0l0,0l0,0l0,0l0,0l0,0l0,0l0,0l0,0l0,0l0,0l0,0l0,0l0,0l0,0l0,0l0,0l0,0l0,0l0,0l0,0l0,0l0,0h0.1l0,0c0.1,0,0.2,0.1,0.2,0.1
				l1.5-3.7C42,430.9,38.3,428.2,35.3,424.7L35.3,424.7L35.3,424.7z M68.7,431.8c-3.8,1.8-7.8,2.7-12,2.7c-0.4,0-0.7,0-1.1,0l-0.2,4
				c0.1,0,0.2,0,0.2,0h0.2c0.2,0,0.4,0,0.6,0h0.8c0.1,0,0.1,0,0.2,0h0.1c3-0.1,5.8-0.5,8.5-1.4l0,0c0.3-0.1,0.5-0.2,0.8-0.2l0,0
				c1.2-0.4,2.5-0.9,3.6-1.4L68.7,431.8L68.7,431.8L68.7,431.8z M83.7,414.9c-1.4,4.3-3.9,8.2-7.1,11.4l2.8,2.9
				c3.6-3.6,6.4-8,8.1-13L83.7,414.9L83.7,414.9L83.7,414.9z M89.1,389.9h-4v15.4h4V389.9L89.1,389.9z M89.1,363.5h-4v15.4h4V363.5
				L89.1,363.5z M89.1,337.1h-4v15.4h4V337.1L89.1,337.1z M78.1,319.9v4c2.7,0,5.2,1.6,6.3,4l3.6-1.7c-0.1-0.2-0.2-0.4-0.3-0.5l0,0
				c0-0.1-0.1-0.1-0.1-0.2l0,0l0,0l0,0l0,0l0,0l0,0l0,0l0,0l0,0v-0.1l0,0l0,0l0,0l0,0l0,0l0,0l0,0l0,0l0,0l0,0l0,0l0,0l0,0l0,0l0,0
				l0,0l0,0l0,0l0,0l0,0l0,0l0,0l0,0l0,0l0,0l0,0l0,0l0,0l0,0l0,0l0,0l0,0l0,0l0,0l0,0l0,0l0,0l0,0l0,0l0,0l0,0l0,0l0,0l0,0l0,0l0,0
				l0,0l0,0l0,0l0,0l0,0l0,0l0,0l0,0l0,0l0,0l0,0l0,0l0,0l0,0l0,0l0,0l0,0l0,0l0,0l0,0l0,0l0,0l0,0l0,0l0,0l0,0l0,0l0,0l0,0l0,0l0,0
				l0,0l0,0l0,0l0,0l0,0l0,0l0,0l0,0l0,0l0,0l0,0l0,0l0,0l0,0l0,0l0,0l0,0l0,0l0,0l0,0l0,0l0,0l0,0l0,0l0,0l0,0l0,0l0,0l0,0l0,0l0,0
				l0,0l0,0l0,0l0,0l0,0l0,0l0,0l0,0l0,0l0,0l0,0l0,0l0,0l0,0l0,0l0,0l0,0l0,0l0,0l0,0l0,0l0,0l0,0l0,0l0,0l0,0l0,0l0,0l0,0l0,0l0,0
				l0,0l0,0l0,0l0,0l0,0l0,0l0,0l0,0l0,0l0,0l0,0l0,0l0,0l0,0l0,0l0,0l0,0l0,0l0,0l0,0l0,0l0,0l0,0l0,0l0,0l0,0l0,0l0,0l0,0l0,0l0,0
				l0,0l0,0l0,0l0,0l0,0l0,0l0,0l0,0l0,0l0,0l0,0l0,0l0,0l0,0l0,0l0,0l0,0l0,0l0,0l0,0l0,0l0,0l0,0l0,0l0,0l0,0l0,0l0,0l0,0l0,0l0,0
				l0,0l0,0l0,0l0,0l0,0l0,0l0,0l0,0l0,0l0,0l0,0l0,0l0,0l0,0l0,0l0,0l0,0l0,0l0,0l0,0l0,0l0,0l0,0l0,0l0,0l0,0l0,0l0,0l0,0l0,0l0,0
				l0,0l0,0l0,0l0,0l0,0l0,0l0,0l0,0l0,0l0,0l0,0l0,0l0,0l0,0l0,0l0,0l0,0l0,0l0,0l0,0l0,0l0,0l0,0l0,0l0,0l0,0l0,0l0,0l0,0l0,0l0,0
				l0,0l0,0l0,0l0,0l0,0l0,0l0,0l0,0l0,0l0,0l0,0l0,0l0,0l0,0l0,0l0,0l0,0l0,0l0,0l0,0l0,0l0,0l0,0l0,0l0,0l0,0l0,0l0,0l0,0l0,0l0,0
				l0,0l0,0l0,0l0,0l0,0l0,0l0,0l0,0l0,0l0,0l0,0l0,0l0,0l0,0l0,0l0,0l0,0l0,0l0,0l0,0l0,0l0,0l0,0l0,0l0,0l0,0l0,0l0,0l0,0l0,0l0,0
				l0,0l0,0l0,0l0,0l0,0l0,0l0,0l0,0l0,0l0,0l0,0l0,0l0,0l0,0l0,0l0,0l0,0l0,0l0,0l0,0l0,0l0,0l0,0l0,0l0,0l0,0l0,0l0,0l0,0l0,0l0,0
				l0,0l0,0l0,0l0,0l0,0l0,0l0,0l0,0l0,0l0,0l0,0l0,0l0,0l0,0l0,0l0,0l0,0l0,0l0,0l0,0l0,0l0,0l0,0l0,0l0,0l0,0l0,0l0,0l0,0l0,0l0,0
				l0,0l0,0l0,0l0,0l0,0l0,0l0,0l0,0l0,0l0,0l0,0l0,0l0,0l0,0l0,0l0,0l0,0l0,0l0,0l0,0l0,0l0,0l0,0l0,0l0,0l0,0l0,0l0,0l0,0l0,0l0,0
				l0,0l0,0l0,0l0,0l0,0l0,0l0,0l0,0l0,0l0,0l0,0l0,0l0,0l0,0l0,0l0,0l0,0l0,0l0,0l0,0l0,0l0,0l0,0l0,0l0,0l0,0l0,0l0,0l0,0l0,0l0,0
				l0,0l0,0l0,0l0,0l0,0l0,0l0,0l0,0l0,0l0,0l0,0l0,0l0,0l0,0l0,0l0,0l0,0l0,0l0,0l0,0l0,0l0,0l0,0l0,0l0,0l0,0l0,0l0,0l0,0l0,0l0,0
				l0,0l0,0l0,0l0,0l0,0l0,0l0,0l0,0l0,0l0,0l0,0l0,0l0,0l0,0l0,0l0,0l0,0l0,0l0,0l0,0l0,0l0,0h-0.1l0,0l0,0l0,0l0,0l0,0h-0.1l0,0
				l0,0l0,0l0,0l0,0h-0.1l0,0H82l0,0l0,0l0,0h-0.1l0,0h-0.1l0,0h-0.1l0,0h-0.1l0,0l0,0l0,0h-0.1l0,0h-0.1l0,0h-0.1l0,0h-0.1l0,0
				h-0.1l0,0H81l0,0h-0.1l0,0h-0.1l0,0h-0.1l0,0h-0.1l0,0h-0.1l0,0h-0.1l0,0H81l0,0l0,0l0,0h-0.1l0,0h-0.1l0,0h-0.1l0,0h-0.1l0,0
				h-0.1l0,0h-0.1l0,0h-0.1l0,0h-0.1l0,0h-0.1l0,0H80l0,0h-0.1l0,0h-0.1l0,0h-0.1l0,0H80l0,0h-0.1l0,0h-0.1l0,0h-0.1l0,0h-0.1l0,0
				h-0.1l0,0h-0.1l0,0h-0.1l0,0h-0.2l0,0h-0.2l0,0h-0.2l0,0h-0.6L78.1,319.9z" />
				<g id="slot0_add">
					<path class="st2" d="M37.3,398.4c5.3,0,11.6,3.2,17.2,8.9c7.3,7.3,14.3,11.1,20.9,11.1c3,0,5.6-0.8,7.7-1.9
					c-4.2,10.5-14.5,18-26.4,18c-15.1,0-27.5-11.7-28.4-26.7C28.7,401.7,31.9,398.4,37.3,398.4 M37.3,394.4c-7.2,0-12.5,4.6-13,13.3
					c0.9,17.1,15.1,30.7,32.4,30.7l0,0c17.2,0,31.3-13.4,32.4-30.3c-0.1-0.4-0.2-0.6-0.4-0.6c-1.3,0-5.4,6.8-13.2,6.8
					c-4.6,0-10.6-2.4-18-9.9C50.5,397.6,43.3,394.4,37.3,394.4L37.3,394.4L37.3,394.4z" />
					<path class="st2" d="M67.9,371.6h-4c-1.9,0-3.5-1.6-3.5-3.5v-4.2c0-1.9-1.6-3.5-3.5-3.5h-0.4c-1.9,0-3.5,1.6-3.5,3.5v4.2
					c0,1.9-1.6,3.5-3.5,3.5h-4c-1.9,0-3.5,1.6-3.5,3.5l0,0c0,1.9,1.6,3.5,3.5,3.5h4c1.9,0,3.5,1.6,3.5,3.5v4.2
					c0,1.9,1.6,3.5,3.5,3.5h0.4c1.9,0,3.5-1.6,3.5-3.5v-4.2c0-1.9,1.6-3.5,3.5-3.5h4c1.9,0,3.5-1.6,3.5-3.5l0,0
					C71.4,373.2,69.8,371.6,67.9,371.6z" />
				</g>
			</g>
			<g id="prev_slot0_content">
				<g id="prev_slot0_content_" transform-origin="56.70000076293945 438.5">
					<path id="prev_slot0_content_back" class="st5" d="M77.9,319.9H35.3c-6.1,0-11,4.9-11,11V406c0,17.9,14.5,32.5,32.4,32.5l0,0
					c17.8,0,32.4-14.5,32.4-32.5v-75.1C89,324.8,84,319.9,77.9,319.9L77.9,319.9z" />
					<text id="prev_slot0_number" transform="matrix(1 0 0 1 58 406.1079)" class="st7 st8 st9"></text>
				</g>
			</g>
			<g id="prev_slot1_content" >
				<g id="prev_slot1_content_" transform-origin="56.65000534057617 307.20001220703125">
					<path id="prev_slot1_content_back" class="st5" d="M78.1,188.6H35.2c-6.1,0-11,4.9-11,11v96.6c0,6.1,4.9,11,11,11h42.9c6.1,0,11-4.9,11-11
					v-96.6C89.1,193.5,84.2,188.6,78.1,188.6L78.1,188.6z" />
					<text id="prev_slot1_number" transform="matrix(1 0 0 1 58 275.0574)" class="st7 st8 st9"></text>
				</g>
			</g>
			<g id="prev_slot2_content">
				<g id="prev_slot2_content_" transform-origin="56.70000076293945 175.89999389648438">
					<path id="prev_slot2_content_back" class="st5" d="M89.1,68.4v96.5c0,6.1-4.9,11-11,11H35.3c-6.1,0-11-4.9-11-11V68.4c0-6.1,4.9-11,11-11
					h42.9C84.2,57.4,89.1,62.3,89.1,68.4z" />
					<text id="prev_slot2_number" transform="matrix(1 0 0 1 58 143.9079)" class="st7 st8 st9"></text>
				</g>
			</g>
			<g id="slot0_content">
				<g id="slot0_content_" transform-origin="56.70000076293945 438.5">
					<path id="slot0_content_back" class="st5" d="M77.9,319.9H35.3c-6.1,0-11,4.9-11,11V406c0,17.9,14.5,32.5,32.4,32.5l0,0
					c17.8,0,32.4-14.5,32.4-32.5v-75.1C89,324.8,84,319.9,77.9,319.9L77.9,319.9z" />
					<text id="slot0_number" transform="matrix(1 0 0 1 58 406.1079)" class="st7 st8 st9"></text>
				</g>
			</g>
			<g id="slot1_content" >
				<g id="slot1_content_" transform-origin="56.65000534057617 307.20001220703125">
					<path id="slot1_content_back" class="st5" d="M78.1,188.6H35.2c-6.1,0-11,4.9-11,11v96.6c0,6.1,4.9,11,11,11h42.9c6.1,0,11-4.9,11-11
					v-96.6C89.1,193.5,84.2,188.6,78.1,188.6L78.1,188.6z" />
					<text id="slot1_number" transform="matrix(1 0 0 1 58 275.0574)" class="st7 st8 st9"></text>
				</g>
			</g>
			<g id="slot2_content">
				<g id="slot2_content_" transform-origin="56.70000076293945 175.89999389648438">
					<path id="slot2_content_back" class="st5" d="M89.1,68.4v96.5c0,6.1-4.9,11-11,11H35.3c-6.1,0-11-4.9-11-11V68.4c0-6.1,4.9-11,11-11
					h42.9C84.2,57.4,89.1,62.3,89.1,68.4z" />
					<text id="slot2_number" transform="matrix(1 0 0 1 58 143.9079)" class="st7 st8 st9"></text>
				</g>
			</g>
		</g>
	</g>
</svg>