<?xml version="1.0" encoding="UTF-8"?><svg xmlns="http://www.w3.org/2000/svg" xmlns:xlink="http://www.w3.org/1999/xlink"
    viewBox="0 0 207.44667 1042.94435">
    <defs>
        <style>
            .cls-6 {
                fill: url(#slot0_content_back_gradient);
            }

            .cls-2 {
                fill: url(#slot0_content_back1_gradient);
            }

            .cls-10,
            .cls-24,
            .cls-26,
            .cls-28 {
                fill: url(#slot1_content_back_gradient);
            }

            .cls-1,
            .cls-3,
            .cls-4,
            .cls-5 {
                fill: url(#slot1_content_back1_gradient);
            }

            .cls-7,
            .cls-8,
            .cls-9 {
                fill: #fff;
            }

            .cls-11 {
                isolation: isolate;
            }

            .cls-8 {
                opacity: .3;
            }

            .cls-12 {
                opacity: .1;
            }

            .cls-13 {
                fill: none;
                opacity: .4;
                stroke: #33240a;
                stroke-miterlimit: 10;
                stroke-width: 2px;
            }

            .cls-9 {
                opacity: .5;
            }

            .cls-14,
            .cls-12 {
                fill: #a5d1db;
            }

            .cls-15 {
                fill: url(#linear-gradient-9);
            }

            .cls-15 {
                opacity: .1;
            }

            .cls-16 {
                opacity: .15;
            }

            .cls-17 {
                opacity: .1;
            }

            .cls-16 {
                fill: #2c4a4f;
            }

            .cls-18 {
                fill: url(#linear-gradient-10);
            }

            .cls-18,
            .cls-19 {
                opacity: .3;
            }

            .cls-20,
            .cls-21,
            .cls-22 {
                fill: #4a7784;
            }

            .cls-20 {
                opacity: .2;
            }

            .cls-23 {
                opacity: .1;
            }

            .cls-25 {
                fill: #424e63;
            }

            .cls-21 {
                opacity: .1;
            }

            .cls-22 {
                opacity: .5;
            }

            .cls-23 {
                fill: url(#linear-gradient-8);
            }

            .cls-27 {
                fill: url(#linear-gradient);
            }

            .cls-17 {
                fill: url(#linear-gradient-7);
            }

            .cls-29 {
                opacity: 0.1;
            }

            .cls-30 {
                opacity: 0.3;
            }
        </style>
        <linearGradient id="linear-gradient" x1="60.27607" y1="803.57019" x2="147.1706" y2="803.57019"
            gradientTransform="matrix(1, 0, 0, 1, 0, 0)" gradientUnits="userSpaceOnUse">
            <stop offset="0" stop-color="#8db9c6" />
            <stop offset=".55219" stop-color="#8ebac7" />
            <stop offset=".75105" stop-color="#94c1cd" />
            <stop offset=".89236" stop-color="#9fcdd7" />
            <stop offset="1" stop-color="#aedde5" />
        </linearGradient>
        <linearGradient id="slot0_content_back_gradient" x1="103.87395" y1="1002.58766" x2="103.87395" y2="888.9422"
            gradientTransform="matrix(1, 0, 0, 1, 0, 0)" gradientUnits="userSpaceOnUse">
            <stop offset="0" stop-color="#ff4b33" />
            <stop offset="1" stop-color="#ffab03" />
        </linearGradient>
        <radialGradient id="slot0_content_back1_gradient" cx="103.72342" cy="945.76484" fx="87.89381" fy="920.99993"
            r="70.618" gradientTransform="matrix(1, 0, 0, 1, 0, 0)" gradientUnits="userSpaceOnUse">
            <stop offset="0" stop-color="#ffab03" />
            <stop offset=".08938" stop-color="#ffab03" stop-opacity=".86889" />
            <stop offset=".28173" stop-color="#ffab03" stop-opacity=".60853" />
            <stop offset=".46471" stop-color="#ffab03" stop-opacity=".39138" />
            <stop offset=".63301" stop-color="#ffab03" stop-opacity=".22209" />
            <stop offset=".78353" stop-color="#ffab03" stop-opacity=".10055" />
            <stop offset=".91095" stop-color="#ffab03" stop-opacity=".02651" />
            <stop offset="1" stop-color="#ffab03" stop-opacity="0" />
        </radialGradient>
        <linearGradient id="slot1_content_back_gradient" x1="103.72342" y1="876.7711" x2="103.72342" y2="763.1257"
            gradientTransform="matrix(1, 0, 0, 1, 0, 0)" gradientUnits="userSpaceOnUse">
            <stop offset="0" stop-color="#ff4b33" />
            <stop offset="1" stop-color="#ffab03" />
        </linearGradient>
        <radialGradient id="slot1_content_back1_gradient" cy="819.88357" fy="795.11866"
            xlink:href="#slot0_content_back1_gradient" />
        <linearGradient id="linear-gradient-7" x1="91.26459" y1="1004.18015" x2="91.26459" y2="600.14811"
            gradientTransform="matrix(1, 0, 0, 1, 0, 0)" gradientUnits="userSpaceOnUse">
            <stop offset="0" stop-color="#fff" />
            <stop offset=".37264" stop-color="#fff" stop-opacity=".99265" />
            <stop offset=".50689" stop-color="#fff" stop-opacity=".96601" />
            <stop offset=".60258" stop-color="#fff" stop-opacity=".91964" />
            <stop offset=".67999" stop-color="#fff" stop-opacity=".85333" />
            <stop offset=".74626" stop-color="#fff" stop-opacity=".76701" />
            <stop offset=".80498" stop-color="#fff" stop-opacity=".66033" />
            <stop offset=".8581" stop-color="#fff" stop-opacity=".53312" />
            <stop offset=".90691" stop-color="#fff" stop-opacity=".38512" />
            <stop offset=".95232" stop-color="#fff" stop-opacity=".21583" />
            <stop offset=".99262" stop-color="#fff" stop-opacity=".03619" />
            <stop offset="1" stop-color="#fff" stop-opacity="0" />
        </linearGradient>
        <linearGradient id="linear-gradient-8" x1="91.26459" y1="992.0656" x2="91.26459" y2="668.78757"
            gradientTransform="matrix(1, 0, 0, 1, 0, 0)" gradientUnits="userSpaceOnUse">
            <stop offset="0" stop-color="#fff" />
            <stop offset=".44426" stop-color="#fff" stop-opacity=".98883" />
            <stop offset=".75652" stop-color="#fff" stop-opacity=".95295" />
            <stop offset="1" stop-color="#fff" stop-opacity=".9" />
        </linearGradient>
        <linearGradient id="linear-gradient-9" x1="101.33012" y1="1009.94706" x2="101.33012" y2="613.53729"
            gradientTransform="matrix(1, 0, 0, 1, 0, 0)" gradientUnits="userSpaceOnUse">
            <stop offset="0" stop-color="#2c3435" />
            <stop offset=".52183" stop-color="#2c3435" stop-opacity=".96466" />
            <stop offset=".70979" stop-color="#2c3435" stop-opacity=".83659" />
            <stop offset=".84378" stop-color="#2c3435" stop-opacity=".61357" />
            <stop offset=".95136" stop-color="#2c3435" stop-opacity=".29779" />
            <stop offset="1" stop-color="#2c3435" stop-opacity=".1" />
        </linearGradient>
        <linearGradient id="linear-gradient-10" x1="77.48289" y1="1008.93177" x2="77.48289" y2="970.20322"
            xlink:href="#linear-gradient-7" />
    </defs>
    <g class="cls-11">
        <g id="Layer_12">
            <g>
                <path class="cls-25"
                    d="M69.22578,977.42424c-.00244-.05957-.00586-.1189-.00781-.17847,.00244,.05957,.00537,.1189,.00781,.17847Z" />
                <g id="background" class="cls-29">
                    <path class="cls-27"
                        d="M60.27607,592.05256v379.58798c0,23.95703,19.49023,43.44727,43.44727,43.44727s43.44727-19.49023,43.44727-43.44727v-379.58798H60.27607Z" />
                    <path class="cls-14"
                        d="M65.05176,600.1481v371.12739c0,21.32369,17.34788,38.67157,38.67157,38.67157s38.67157-17.34788,38.67157-38.67157v-371.12739H65.05176Z" />
                    <rect class="cls-14" x="54.00025" y="585.72787" width="99.44616" height="27.81513" rx="9.35093"
                        ry="9.35093" />
                </g>
                <g id="slot0_empty" class="cls-19">
                    <path class="cls-7"
                        d="M120.97181,888.94226h-18v4h18v-4h0Zm-28.55615,0h-5.68066l-.00732,.00012h-.02441l-.00537,.00012h-.01172l-.01221,.00012h-.00195l-.00977,.00012h-.01221l-.00439,.00012h-.0083l-.00391,.00012h-.00781l-.00488,.00012-.00732,.00012h-.00488l-.00781,.00012h-.00391l-.00928,.00012h-.00342l-.01172,.00024h-.00293l-.00928,.00012-.00391,.00012-.0083,.00012h-.00488l-.00684,.00012-.00537,.00012-.00684,.00012-.00537,.00012-.00684,.00012-.00488,.00012-.00732,.00012-.00488,.00012-.0083,.00012-.00391,.00012-.01172,.00024h-.00439l-.00781,.00024-.00439,.00012-.00781,.00012-.00439,.00012-.00781,.00012-.00439,.00012-.00732,.00024-.00488,.00012-.00781,.00012-.00439,.00012-.00781,.00024-.00439,.00012-.00879,.00024-.00293,.00012-.01221,.00024-.00439,.00012-.00732,.00024-.00537,.00012-.00684,.00024-.00537,.00024-.00684,.00012-.00488,.00012-.00684,.00024-.00537,.00024-.00684,.00012-.00537,.00024-.00684,.00024-.00537,.00012-.00879,.00037-.00293,.00012-.01172,.00037-.00391,.00012-.0083,.00037-.00391,.00012-.0083,.00024-.00391,.00012-.0083,.00037-.00391,.00012-.00781,.00037-.00488,.00012-.00732,.00037-.00439,.00012-.00879,.00037-.00342,.00012-.01074,.00049h-.00146l-.01172,.00049-.00439,.00024-.00781,.00037-.00439,.00012-.00781,.00037-.00439,.00024-.00732,.00037-.00488,.00012-.00732,.00037-.00488,.00024-.00732,.00037-.00439,.00012-.0083,.00049-.00391,.00012-.00977,.00049-.00195,.00012-.01221,.00061-.00391,.00012-.00781,.00049-.00488,.00024-.00732,.00037-.00488,.00024-.00684,.00037-.00537,.00024-.00684,.00037-.00537,.00024-.00635,.00037-.00537,.00037-.00684,.00037-.00488,.00024-.0083,.00049-.00781,.00037-.00732,.00049-.00635,.00037-.00537,.00024-.00635,.00037-.00586,.00037-.00635,.00037-.00537,.00037-.00635,.00037-.00586,.00037-.00586,.00037-.00586,.00037-.00586,.00037-.00684,.00037-.00488,.00037-.01172,.00073h-.00049l-.01123,.00073-.00586,.00037-.00586,.00037-.00635,.00037-.00586,.00037-.00586,.00049-.00586,.00037-.00586,.00037-.00586,.00037-.00635,.00049-.00586,.00037-.00586,.00037-.00684,.00049-.00488,.00037-.01074,.00073-.00439,.00037-.0083,.00049-.00537,.00049-.00635,.00037-.00537,.00049-.00684,.00049-.00537,.00037-.00635,.00049-.00537,.00037-.00684,.00049-.00488,.00037-.00732,.00061-.00439,.00024-.00781,.00061-.00439,.00037-.01172,.00085-.00439,.00037-.00684,.00061-.00586,.00037-.00635,.00061-.00537,.00037-.00635,.00049-.00586,.00049-.00635,.00049-.00537,.00049-.00635,.00049-.00537,.00049-.00684,.00049-.00537,.00049-.00635,.00049-.00537,.00049-.01123,.00098-.00537,.00037-.00635,.00061-.00635,.00049-.00537,.00049-.00586,.00049-.00635,.00061-.00537,.00049-.00635,.00049-.00537,.00049-.00635,.00061-.00586,.00049-.00635,.00061-.00537,.00049-.00635,.00061-.00537,.00049-.01172,.00098-.00488,.00049-.00635,.00061-.00635,.00049-.00586,.00061-.00537,.00049-.00635,.00061-.00537,.00049-.00684,.00061-.00537,.00061-.00586,.00049-.00586,.00061-.00635,.00061-.00537,.00049-.00781,.00085-.00391,.00037-.01123,.0011-.00537,.00049-.00635,.00073-.00586,.00049-.00635,.00061-.00488,.00061-.00684,.00061-.00537,.00061-.00635,.00061-.00537,.00061-.00635,.00061-.00586,.00061-.00586,.00061-.00537,.00061-.00732,.00073-.0083,.00085-.00781,.00085-.00635,.00061-.00488,.00061-.00635,.00061-.00586,.00061-.00586,.00061-.00537,.00061-.00635,.00073-.00537,.00061-.00635,.00073-.00488,.00049-.00684,.00073-.00488,.00061-.00684,.00073-.00439,.00049-.0166,.00183-.00146,.00024-.00732,.00073-.00439,.00049-.00732,.00098-.00391,.00037-.00732,.00085-.00439,.00049-.00732,.00085-.00439,.00049-.00684,.00085-.00439,.00049-.00781,.00098-.00293,.00037-.0083,.00098-.00342,.00037-.01416,.00171-.00488,.00061-.00732,.00085-.00391,.00049-.00732,.00085-.00439,.00061-.00684,.00085-.00488,.00049-.00684,.00085-.00488,.00061-.00635,.00085-.00488,.00061-.00684,.00085-.00439,.00049-.00732,.00098-.00342,.00049-.01465,.00183-.00439,.00049-.00732,.00098-.00391,.00049-.00781,.00098-.00391,.00049-.00684,.00098-.00488,.00061-.00684,.00085-.00439,.00061-.00684,.00085-.00488,.00061-.00684,.00098-.00391,.00049-.00781,.0011-.00342,.00037-.01562,.0022-.00293,.00037-.00781,.00098-.00391,.00061-.00684,.00098-.00488,.00061-.00684,.00098-.00439,.00061-.00684,.00085-.00488,.00073-.00684,.00098-.00439,.00061-.00684,.00098-.00488,.00061-.02832,.00403h-.00049l-.0083,.00122-.00342,.00049-.00781,.0011-.00342,.00049-.00732,.0011-.00439,.00061-.00732,.0011-.00439,.00061-.00684,.00098-.00439,.00073-.00732,.0011-.00195,.00024-.02832,.00415-.00293,.00049-.00781,.00122-.00342,.00049-.00732,.0011-.00488,.00073-.00635,.00098-.00488,.00073-.00635,.00098-.00537,.00073-.00635,.0011-.00439,.00061-.00732,.0011-.00342,.00049-.02881,.00452-.00098,.00012-.00879,.00134-.00244,.00049-.0083,.00134-.00342,.00049-.00732,.00122-.00439,.00061-.00732,.00122-.00342,.00049-.00781,.00134-.00293,.00037-.04004,.00659-.00146,.00024-.0083,.00134-.00293,.00049-.00781,.00134-.00391,.00061-.00732,.00122-.00342,.00061-.0083,.00134-.00293,.00037-.0083,.00146-.00146,.00037-.04199,.00708h-.00049l-.00928,.00159-.00195,.00037-.00928,.00159-.00146,.00037-.00928,.00146-.00195,.00049-.00928,.00146-.00195,.00049-.00879,.00146-.00195,.00037-.04004,.00696-.00195,.00049-.00879,.00146-.00244,.00049-.0083,.00146-.00293,.00061-.0083,.00146-.00293,.00049-.0083,.00159-.00244,.00049-.00879,.00159-.00098,.00012-.04199,.00769-.00049,.00012-.00928,.00171-.00195,.00037-.00928,.00171-.00195,.00037-.00879,.00171-.00244,.00037-.00879,.00171-.00146,.00024-.00928,.00183-.00098,.00024-.04102,.00781-.00146,.00024-.00928,.00183-.00195,.00037-.0083,.00159-.00293,.00061-.0083,.00159-.00293,.00061-.0083,.00159-.00244,.00049-.00879,.00171-.00049,.00012-.0415,.0083-.00098,.00024-.00928,.00171-.00195,.00049-.00928,.00183-.00195,.00037-.00879,.00183-.00195,.00037-.00879,.00183-.00244,.00049-.00879,.00171-.00195,.00049-.03906,.00806-.00244,.00049-.00879,.00183-.00195,.00049-.00879,.00183-.00244,.00049-.0083,.00171-.00244,.00061-.00879,.00171-.00244,.00061-.05078,.01074-.00098,.00024-.00879,.00195-.00244,.00037-.00879,.00195-.00195,.00049-.0083,.00183-.00293,.00061-.00879,.00183-.00146,.00037-.05078,.01123-.00146,.00037-.00928,.00208-.00146,.00024-.00928,.00208-.00195,.00037-.00879,.00208-.00146,.00037-.07275,.0166-.00098,.00012-.01025,.00244h0l-.07373,.01733h-.00049l-.02051,.005h-.00049l-.08398,.02051h0c-.03516,.00854-.07031,.01733-.10498,.02612l-.00049,.00012c-.05615,.01428-.11133,.02869-.16748,.04358v.00012l-.09326,.02527-.00049,.00012-.01025,.00281-.00049,.00012-.10352,.02893-.00049,.00012c-.05518,.01575-.10986,.03162-.16504,.04797l-.00049,.00024-.08203,.02466-.00049,.00012-.01025,.00305h0l-.01025,.00317h0l-.08154,.02527-.00098,.00024c-.21191,.06641-.42139,.13745-.62939,.2135l-.00049,.00024c-.21094,.07727-.41943,.1593-.62549,.24634l-.00049,.00024-.00928,.00391-.00049,.00024-.07812,.0332v.00012l-.07812,.03381v.00012c-.03271,.01416-.06494,.02844-.09717,.04297h0l-.07764,.03479-.00049,.00024-.00928,.00415-.00049,.00024-.07666,.03528h0l-.00977,.00452h0c-.11572,.05359-.23047,.10876-.34473,.16541h0l-.0752,.03772-.00098,.00049-.06543,.03333h-.00049l-.0083,.00439-.00146,.00073-.00879,.00439-.00049,.00037-.00879,.00464h-.00049l-.05615,.02917h0l-.01855,.00977-.00049,.00012-.05615,.0293v.00012l-.00879,.00464-.00098,.00049-.0083,.00439-.00146,.00073-.0083,.00439-.00098,.00061-.0083,.00439-.00098,.00061-.0542,.02893-.00146,.00085-.0083,.00439-.00146,.00073-.00781,.00427-.00195,.00098-.00781,.00427-.00098,.00049-.04443,.02417-.00195,.00098-.00732,.00403-.00195,.00122-.00732,.00391-.00244,.00134-.00781,.00415-.00146,.00085-.00781,.00439-.00098,.00049-.05371,.02979-.00195,.00098-.00781,.00427-.00146,.00085-.00781,.00439-.00195,.00098-.00781,.00427-.00146,.00098-.00781,.00439-.00049,.00024-.02734,.01514v.00012l-.00732,.00415-.00244,.00146-.00732,.00415-.00195,.0011-.00732,.00403-.00244,.00146-.00732,.00415-.00195,.00098-.00732,.00415-.00244,.00146-.03418,.01941-.00098,.00049-.00732,.00439-.00195,.0011-.00732,.00403-.00293,.00159-.00635,.00378-.00293,.00171-.00635,.00366-.00391,.0022-.00586,.0033-.00342,.00208-.00635,.00366-.00098,.00049-.0249,.01428-.00195,.00134-.00684,.00378-.00293,.00183-.00635,.00366-.00342,.00208-.00537,.00317-.00439,.00244-.00586,.00342-.00342,.00208-.00586,.00354-.00293,.00171-.03271,.01917-.00195,.0011-.00635,.00378-.00342,.00195-.00586,.00342-.00439,.00244-.00537,.00317-.00391,.00232-.00586,.00354-.00342,.00208-.00586,.00366-.00342,.00183-.00635,.00378-.00342,.00208-.0127,.00757-.00195,.00134-.00586,.00342-.00439,.00244-.00439,.00281-.00537,.00305-.00488,.00293-.00439,.00281-.00537,.00305-.00391,.00244-.00586,.00354-.00391,.0022-.00537,.0033-.00439,.00269-.00537,.0033-.00146,.00085-.01318,.00806-.00342,.0022-.00537,.00293-.00488,.00317-.00439,.00269-.00488,.00293-.00488,.00305-.00488,.00281-.00488,.00305-.00439,.00269-.00537,.00317-.00391,.00269-.00586,.0033-.00293,.00195-.00635,.00391-.00098,.00037-.01367,.00867-.00391,.0022-.00537,.00342-.00391,.00244-.00537,.00342-.00439,.00244-.00537,.00342-.00391,.00256-.00537,.00317-.00439,.00269-.00537,.0033-.00391,.00269-.00537,.00317-.00439,.00281-.00488,.00317-.00928,.00562-.00488,.00317-.00439,.00269-.00537,.0033-.00439,.00269-.00488,.00305-.00439,.00293-.00488,.00305-.00488,.00293-.00488,.00317-.00439,.00269-.00488,.00317-.00488,.00317-.00439,.00281-.00684,.00427-.00244,.00159-.00977,.00586-.00391,.00256-.00537,.00354-.00439,.00256-.00537,.00366-.00342,.0022-.00635,.00391-.00342,.00232-.00635,.00391-.00342,.00208-.00635,.00415-.00293,.00195-.00781,.00513-.00146,.00085-.02002,.0127-.00049,.00037-.0083,.00549-.00391,.00232-.00586,.00391-.00342,.0022-.00635,.00403-.00342,.00208-.00635,.00427-.00293,.00195-.00684,.00452-.00244,.00159-.0083,.00537-.00146,.00073-.01953,.01282-.00049,.00037-.00879,.00586-.00244,.00146-.00732,.00464-.00244,.00183-.00684,.00452-.00293,.00171-.00732,.00488-.00195,.00134-.00781,.00513-.00195,.00122-.00879,.00598-.00049,.00024-.01953,.01306-.00049,.00024-.00879,.00574-.00293,.00195-.00684,.00452-.00244,.00171-.00732,.00476-.00195,.00146-.0083,.00525-.00146,.0011-.0083,.00562-.00098,.00073-.03906,.02612-.00049,.00037-.00928,.00623-.00049,.00037-.00928,.00623-.00049,.00049-.00977,.00635v.00012l-.04883,.0332-.00049,.00037-.00928,.00635-.00049,.00012-.00928,.00647-.00049,.00037-.00928,.00647-.00049,.00012-.05811,.04028-.00049,.00037-.00928,.00635-.00049,.00049-.05762,.04041-.00098,.00049-.00928,.00647h0c-1.03076,.72668-1.95898,1.58899-2.75879,2.56091l3.08838,2.54175c1.90967-2.32068,4.72607-3.65161,7.72705-3.65161h5.63965v-4h0Zm-15.63965,14.9231h-4v18h4v-18h0Zm0,28.5564h-4v18h4v-18h0Zm0,28.5564h-4v10.5116h0v.12427l.00049,.00354v.07593l.00049,.02197v.05298l.00049,.02197v.02698l.00049,.02209v.00403l.00049,.02234v.02661l.00049,.02222v.00391l.00049,.02234v.00281l.00049,.04602v.00403l.00049,.02209v.00305l.00049,.02222v.00122l.00049,.02258v.00378l.00049,.02197v.00391l.00098,.04517v.00415l.00049,.02173v.00403l.00049,.02234v.00134l.00049,.02222v.00281l.00049,.02258v.0033l.00049,.02307,.00049,.00024,.00049,.02258v.00342l.00049,.02234v.00317l.00049,.02295,.00049,.00122,.00049,.02271v.00208l.00049,.02258v.00366l.00098,.02283v.00098l.00049,.02344v.00122l.00098,.02307v.00305l.00049,.02271,.00049,.00232,.00049,.02258v.0011l.00098,.02283v.00342l.00049,.02283,.00049,.00159,.00049,.02295v.00122l.00098,.02258v.00366l.00098,.02209v.00342l.00098,.02246v.00037l.00098,.02258v.00403l.00098,.02185v.00354l.00195,.04578v.00305l.00098,.02197v.00403l.00098,.02246v.00049l.00098,.02234v.00366l.00098,.02209v.00317l.00098,.02283,.00049,.00085,.00098,.02319v.00171l.00098,.02283v.00317l.00098,.02283,.00049,.00122,.00098,.02185v.00317l.00098,.02197v.00378l.00146,.02246v.00171l.00098,.02148v.00305l.00146,.02136v.005l.00098,.02124,.00049,.00342,.00098,.02087v.00232l.00146,.02246v.00342l.00098,.02197,.00049,.00354,.00098,.02161v.0011l.00146,.02246v.00378l.00146,.02209v.00281l.00146,.02197v.00146l.00098,.02234,.00049,.00354,.00098,.02222,.00049,.00293,.00244,.04614,.00049,.00256,.00146,.02295v.0022l.00293,.04663v.00256l.00146,.02222v.00366l.00293,.04578,.00049,.00256,.00146,.02246v.00293l.00146,.02283,.00049,.00122,.00146,.02258v.00195l.00146,.02283v.00269l.00195,.02319v.00049l.00146,.02295v.00195l.00195,.02271v.00293l.00146,.02283v.00134l.00195,.02319v.00085l.00146,.02283,.00049,.00317,.00146,.02246,.00049,.00195,.00146,.02307v.00049l.00195,.02307v.00256l.00195,.02258v.00269l.00342,.04614,.00049,.00269,.00146,.02271,.00049,.00208,.00342,.04651,.00049,.00256,.00146,.02246,.00049,.00269,.00342,.04614,.00049,.00256,.00195,.02283v.00195l.00391,.04675v.00208l.00195,.02234,.00049,.00342,.00391,.04626v.00171l.00244,.02295v.00232l.00195,.02319v.00024l.00244,.02417v.00037l.00195,.02368v.00159l.00439,.04834h0l.00244,.02405v.0011l.00244,.02393v.00037l.00439,.04736,.00049,.00269,.00195,.02295v.0011l.00488,.04749v.00159l.00244,.02344v.0011l.00439,.047,.00049,.0022,.00244,.02258v.00256l.00488,.04602v.00244l.00244,.02246v.00256l.00488,.04626,.00049,.00183,.00244,.02319v.00146l.00488,.04761v.00085l.00293,.02319v.00195l.00781,.07202v.00061l.0083,.07239v.0011l.0083,.0719v.00146l.00293,.02356v.00049l.00537,.0481,.00049,.00073c.00928,.0813,.01904,.16211,.0293,.24316v.00024c.00635,.04858,.01221,.09705,.01855,.14563v.00024c.14893,1.14087,.35889,2.26086,.62793,3.35938l3.88525-.95068c-.51465-2.10278-.77539-4.27856-.77539-6.4668v-10.5116h0Zm4.4292,25.3645l-3.34375,2.1958,.00244,.0033,.00537,.0083,.00586,.00879,.00537,.00879,.01025,.01526,.00537,.00793,.00635,.00964,.00537,.00806,.00684,.01025,.00439,.00696,.01074,.01599,.00439,.00708,.00732,.01074,.00488,.0072,.00684,.01074,.00439,.00671,.01123,.01636,.00391,.00598,.00732,.01135,.00537,.00757,.00684,.01074,.00439,.00635,.01123,.0166,.00342,.00488,.0083,.01294,.00439,.00623,.00732,.01135,.00439,.00659,.01123,.01624,.00342,.00549,.0083,.01208,.00439,.00671,.00781,.0116,.00391,.00586,.01123,.01636,.00391,.00598,.0083,.01196,.00391,.00623,.0083,.01208,.00391,.00549,.01123,.01685,.00293,.00403,.00928,.01367,.00391,.00562,.00879,.01343,.00293,.00391,.01221,.0177,.00146,.00256,.01074,.0155,.00293,.00427,.00928,.01392,.00293,.00427,.01221,.0177,.00098,.00122,.01123,.0166,.00293,.00403,.01025,.01477,.00195,.00317,.0127,.01819,.00049,.00098,.01172,.01709,.00244,.00305,.01074,.01575,.00146,.00256,.01318,.01843v.00024l.01172,.01733,.00293,.00403,.01074,.01538,.00146,.00208,.02588,.03711,.00098,.00171,.01221,.01721,.00098,.00134,.02588,.03723,.00098,.00171,.0127,.01782,.00049,.00049,.02637,.03772,.00049,.00098,.01318,.01843v.00012l.02686,.03772,.00049,.00122c2.68066,3.79333,6.18799,6.95911,10.26123,9.23621l.00098,.00049,.06104,.03406h.00049c.04102,.02283,.08154,.04541,.12256,.06799l.00098,.00049,.06055,.0332,.00146,.00085,.04053,.02209,.00049,.00012,.01904,.01062,.00195,.0011,.04053,.02185,.00049,.00024,.01904,.01025,.00244,.00134,.04004,.02173,.00049,.00012,.01904,.0105,.00244,.0011,.04004,.02161,.00049,.00037,.01855,.00989,.00342,.00183,.03955,.02112,.00098,.00061,.01855,.00989,.00293,.00134,.01904,.01025,.00049,.00024,.02051,.01099,.00049,.00012,.01904,.01001,.00293,.00171,.04004,.021,.00049,.00049,.01855,.00989,.00342,.00146,.01855,.01001,.00098,.00037,.02051,.01074,.00049,.00049,.01807,.0094,.00439,.0022,.01807,.0094,.00098,.00061,.02002,.0105,.00195,.00085,.01758,.00916,.00391,.00208,.0166,.00867,.00293,.00159,.01953,.01013,.00244,.0011,.01709,.00891,.00391,.0022,.01758,.00903,.00195,.00098,.02002,.01025,.00244,.00134,.01611,.00842,.00537,.00269,.01465,.00757,.00488,.00244,.01855,.00964,.00439,.0022,.01416,.00732,.00684,.00354,.01416,.00708,.00439,.00244,.01904,.00964,.00439,.00208,.01465,.00757,.00586,.00305,.01465,.00732,.00488,.00244,.01855,.00964,.00391,.00183,.01514,.00769,.00586,.00305,.01465,.00732,.00488,.00244,.01855,.00952,.00439,.00208,.01465,.00745,.00635,.00317,.01367,.00684,.00586,.00293,.01807,.00928,.00488,.0022,.01416,.0072,.00684,.00342,.01318,.00659,.00586,.00293,.01855,.00916,.00537,.00269,.01318,.00659,.00732,.00378,.01172,.00574,.00781,.00391,.01758,.00867,.00586,.00305,.0127,.00623,.0083,.00403,.01123,.00574,.00732,.00354,.01807,.00879,.00635,.00317,.01221,.0061,.0083,.00403,.01074,.00525,.0083,.00415,.01709,.00842,.00781,.00391,.01074,.00513,.00928,.00452,.00977,.00488,.00879,.00427,.01709,.00842,.00732,.00342,.01172,.00574,.00879,.00415,.00977,.00488,.00928,.00452,.01611,.00769,.00879,.00439,.01025,.005,.00977,.00464,.00928,.00439,.00977,.00476,.01172,.00574,.01367,.00647,.00977,.00476,.00928,.00452,.00977,.00464,.00977,.00464,.01074,.00525,.01562,.00732,.0083,.00403,.01074,.00513,.00781,.00391,.01025,.00488,.01025,.00476,.01611,.00781,.00879,.00403,.01074,.00513,.00732,.00354,.01123,.00537,.00781,.00366,.01855,.00879,.0083,.00378,.01074,.00513,.00781,.00378,.01074,.005,.00879,.00415,.01758,.0083,.0083,.00391,.01074,.005,.00781,.00354,.01123,.00549,.00488,.00208,.02393,.01135,.00488,.0022,.0127,.00598,.00537,.00256,.0127,.00586,.00293,.00134,.02539,.01184,.00537,.00244,.01221,.00562,.00586,.00293,.0127,.00574,.00293,.00134,.02539,.01172,.00537,.00244,.01172,.00562,.00684,.00293,.01172,.00549,.00488,.00232,.02441,.01111,.00439,.0022,.0127,.00574,.00537,.00244,.01318,.00598,.00244,.0011,.02881,.01331,.00146,.00061,.01416,.00635,.00391,.00183,.01416,.00635,.00098,.00061,.04639,.02087,.00244,.00122,.06152,.02783,.00342,.00146,.06104,.02747,.00391,.00171,.06201,.02747,.00244,.00122,.0625,.02759,.00244,.0011,.0625,.02759,.00244,.00098,.03125,.01379,1.60303-3.66467c-4.8291-2.11255-8.9165-5.56616-11.81982-9.98718h0Zm35.80908,8.85242c-3.99414,2.21948-8.53809,3.39258-13.14014,3.39258-.65479,0-1.31641-.02356-1.96631-.07007l-.28516,3.98987c.08301,.00586,.16895,.01172,.25244,.01697l.00342,.00024,.04541,.00281,.00635,.00037,.0166,.0011,.00586,.00037,.02051,.00122,.00879,.00049,.0127,.00073,.00977,.00061,.01367,.00085,.01611,.00098,.01025,.00049,.01221,.00073,.00684,.00049,.02979,.00159,.00049,.00012,.01514,.00085,.00537,.00024,.04883,.00269,.00146,.00012c.29736,.01611,.5957,.02795,.89502,.03564l.00098,.00012,.06982,.00171h.00146l.0498,.0011,.00439,.00012,.04688,.00098,.00586,.00012,.01416,.00024,.00537,.00012,.02637,.00049,.00635,.00012,.0127,.00024,.00879,.00012,.02197,.00037,.0083,.00024,.01221,.00012,.00928,.00024,.01221,.00012,.01221,.00024,.01611,.00024,.01172,.00012,.01123,.00012,.01172,.00024,.01074,.00012,.01807,.00024,.01025,.00012,.0127,.00012,.00879,.00012,.02051,.00024,.00732,.00012,.01465,.00012,.00879,.00012,.01709,.00012,.00732,.00012,.01904,.00012h.00684l.0166,.00024h.00586l.02197,.00012,.00586,.00012,.0166,.00012h.00732l.02148,.00012h.00342l.01904,.00012h.00635l.02002,.00012h.00293l.02246,.00012h.02881l.02197,.00012h.104l.02051-.00012h.03076l.02051-.00012h.00244l.02197-.00012h.00537l.021-.00012h.00146l.02197-.00012h.00586l.02148-.00024h.00244l.02051-.00012h.00439l.02197-.00024h.00391l.02002-.00012,.00391-.00012,.02148-.00024h.00537l.021-.00024h.00146l.02197-.00024h.00537l.02148-.00037h.00391l.01953-.00024,.00439-.00012,.02197-.00024,.00391-.00012,.02051-.00024h.00293l.02197-.00037,.00488-.00012,.02148-.00037h.00098l.02246-.00037,.00537-.00012,.02197-.00037h.00146l.02051-.00037,.00537-.00012,.02148-.00049h.00391l.02002-.00037,.00391-.00012,.02197-.00049,.00439-.00012,.021-.00037,.00195-.00012,.02197-.00049,.00488-.00012,.02246-.00049h.00098l.02148-.00061h.00439l.02197-.00061,.00439-.00012,.02002-.00049,.00293-.00012,.02197-.00049,.00488-.00012,.021-.00061,.00146-.00012,.02246-.00061,.00488-.00012,.02246-.00061h0l.02246-.00073,.00391-.00012,.02246-.00061,.00293-.00012,.02051-.00061,.00391-.00012,.02246-.00073,.00293-.00012,.02246-.00073h.00098l.02295-.00073,.00342-.00012,.02295-.00085h.00049l.02246-.00085,.00391-.00012,.02246-.00073,.00293-.00012,.02002-.00073,.00439-.00024,.02148-.00073,.00488-.00024,.02002-.00073,.00244-.00012,.02246-.00085,.00439-.00012,.04492-.00183,.00439-.00024,.02197-.00085,.00342-.00012,.02002-.00085,.00391-.00024,.02197-.00098,.00391-.00012,.02051-.00085,.00244-.00012,.02246-.00098,.00439-.00024,.02246-.00098h0l.02197-.0011,.00488-.00024,.02197-.00098,.00244-.00012,.02148-.00098,.00293-.00024,.02246-.0011,.00391-.00012,.02002-.00098,.00293-.00024,.02197-.00098,.00488-.00037,.04492-.00232,.00342-.00012,.02295-.00122,.00146-.00012,.02148-.0011,.00391-.00024,.02246-.00122,.00293-.00012,.02148-.00122h.00146l.02295-.00134,.00342-.00012,.0459-.00269,.00391-.00024,.02246-.00122,.00098-.00012,.02197-.00134,.00342-.00012,.02246-.00134,.00293-.00024,.02197-.00122,.00146-.00012,.02295-.00146,.00342-.00012,.04541-.00293,.00391-.00024,.04688-.00293,.00146-.00012,.02393-.00159h.00049l.02393-.00159,.00049-.00012,.02393-.00159,.00195-.00012,.04688-.00317,.00293-.00012,.04688-.0033,.00195-.00012,.02344-.00171,.00146-.00012,.02246-.00159,.00146-.00012,.02344-.00171,.00293-.00024,.04541-.0033,.00391-.00024,.04541-.00342,.00342-.00037,.02295-.00171,.00098-.00012,.02295-.00171,.00146-.00012,.02344-.00183,.00195-.00012,.04736-.00378,.00195-.00012,.04736-.00391,.00146-.00012,.02393-.00195h.00049l.02344-.00195,.00098-.00012,.02344-.00195,.00244-.00012,.04639-.00403,.00293-.00024,.04639-.00391,.00244-.00024,.02344-.00208h0l.02344-.00208,.00146-.00012,.02393-.0022,.00098-.00012,.04785-.00427,.00146-.00012,.04736-.00439,.00146-.00012,.04785-.00439,.00146-.00012,.02295-.00232,.00244-.00012,.04688-.00452,.00146-.00012,.04688-.00464,.00244-.00024,.04688-.00464,.00195-.00012,.02295-.00232,.00195-.00024,.02295-.00232h.00049l.02344-.00244,.00244-.00024,.04639-.00476,.00195-.00024,.04736-.00488,.00098-.00012,.02393-.00256,.00098-.00012,.02393-.00256h0l.02344-.00244,.00244-.00037,.04639-.005,.00195-.00012,.04736-.00537h.00098l.12158-.01379h.00049l.17041-.02014h0c4.06592-.49084,7.89014-1.76624,11.31689-3.67041l-1.94287-3.49646h0Zm13.67139-19.74829c-.76123,5.20911-3.01904,10.05469-6.52881,14.01318l2.99268,2.65381c3.04053-3.42932,5.33545-7.53589,6.62939-12.06421v-.00061l.01953-.06848,.00049-.00061,.01904-.06812,.00049-.00146,.0127-.04553v-.00024l.00635-.02209v-.00134l.0127-.04529,.00049-.00122,.00537-.02075,.00098-.00256,.01221-.04395,.00049-.0033,.00586-.0199,.00049-.00195,.01172-.04407,.00098-.00378,.00537-.01831,.00098-.00403,.00586-.02173v-.00024l.00537-.02075,.00146-.00488,.00488-.01794,.00098-.00378,.00586-.02148,.00049-.00256,.00488-.01855,.00146-.00525,.00488-.0177,.00098-.00403,.00537-.02112,.00146-.00403,.00439-.0166,.00146-.00671,.00488-.0177,.00098-.00305,.00537-.02136,.00098-.00439,.00439-.01685,.00195-.00586,.00439-.01709,.00098-.00452,.00537-.02026,.00146-.00659,.00391-.01404,.00195-.00806,.00391-.01489,.00244-.00879,.00391-.01636,.00244-.00879,.00293-.01233,.00244-.00842,.00391-.01562,.00244-.00964,.00391-.01489,.00195-.00891,.00293-.0116,.00244-.0094,.00391-.01514,.00293-.01135,.00342-.01294,.00244-.00964,.00244-.01086,.00293-.00989,.00293-.01318,.00391-.01477,.00293-.01123,.00244-.00964,.00244-.01135,.00244-.0094,.00488-.01843,.00244-.00977,.00244-.01086,.00244-.01062,.00244-.00977,.00293-.01074,.00439-.0177,.00244-.01135,.00244-.00903,.00293-.01172,.00195-.00793,.00586-.02478,.00146-.00464,.00293-.01208,.00195-.00842,.00293-.01221,.00146-.0072,.00684-.02698,.00049-.00256,.00342-.01367,.00146-.00635,.00342-.01367,.00098-.00439,.00684-.02905,.00049-.00256,.00342-.01428,.00146-.00537,.00342-.01477v-.00073l.0083-.03369v-.00061l.00342-.01501,.00098-.00488,.01562-.06567,.00098-.00317c.00488-.02258,.01025-.04529,.01562-.06787v-.00037c.1875-.81421,.34326-1.64038,.46582-2.47766l-3.95801-.57837h0Zm4.28613-27.96228h-4v18h4v-18h0Zm0-28.5564h-4v18h4v-18h0Zm-5.27295-26.93372l-2.49561,3.12622c2.39502,1.91162,3.76855,4.76245,3.76855,7.82166v5.42944h4v-5.42944h0v-.07874l-.00049-.01196v-.04907l-.00049-.005v-.03931l-.00049-.00928v-.02429l-.00049-.00525v-.02466l-.00049-.00732v-.02075l-.00049-.00806v-.01221l-.00049-.00537v-.01892l-.00049-.00549v-.01208l-.00049-.00964v-.01465l-.00049-.00293v-.01355l-.00049-.00769v-.01221l-.00049-.00513v-.01245l-.00049-.00696v-.005l-.00049-.00928v-.00281l-.00049-.01196v-.01196l-.00049-.00537v-.00684l-.00049-.00537v-.01208l-.00049-.0072v-.005l-.00049-.0072v-.005l-.00098-.02417v-.0033l-.00049-.00867v-.00488l-.00049-.00708v-.00537l-.00049-.00684v-.00525l-.00049-.00708-.00049-.00513v-.00757l-.00049-.00452-.00049-.01086v-.00403l-.00049-.00916v-.00415l-.00049-.00769v-.00525l-.00049-.00708v-.005l-.00049-.0072-.00049-.005v-.00769l-.00049-.00439-.00049-.00867v-.00342l-.00049-.01208v-.00232l-.00049-.00977-.00049-.00439-.00049-.00757v-.005l-.00049-.0072-.00049-.005v-.0072l-.00049-.00488-.00049-.00732v-.005l-.00049-.00806-.00049-.00378-.00049-.01184v-.00391l-.00049-.0083-.00049-.005-.00049-.00659v-.0061l-.00049-.0061-.00049-.00586-.00049-.00623v-.00562l-.00049-.00696-.00049-.00513-.00049-.00818v-.00378l-.00098-.01184v-.00317l-.00049-.00903-.00049-.00427-.00049-.00757-.00049-.00513-.00049-.00671v-.00562l-.00049-.00696-.00049-.00464-.00049-.00781-.00049-.00452-.00049-.00989v-.00195l-.00098-.01184v-.00427l-.00098-.00793v-.00464l-.00049-.0072-.00049-.00525-.00049-.00684-.00049-.00537-.00049-.00635-.00049-.00574-.00049-.00696v-.005l-.00195-.0238-.00049-.00342-.00049-.00867-.00049-.00439-.00049-.00757-.00049-.00464-.00049-.00757v-.00476l-.00098-.00732v-.00464l-.00098-.00745v-.00488l-.00098-.01147-.00049-.00293-.00049-.00903-.00049-.00452-.00049-.00757-.00049-.005-.00049-.00671-.00049-.00562-.00049-.00647-.00049-.00562-.00049-.00623-.00049-.00562-.00098-.00684-.00049-.00525-.00098-.01135v-.00439l-.00098-.00769-.00049-.00427-.00049-.00781-.00049-.00488-.00049-.00696-.00049-.00525-.00049-.00659-.00049-.00562-.00098-.00659-.00049-.00513-.00049-.00684-.00049-.00537-.00098-.01123-.00049-.00525-.00049-.00659-.00049-.00562-.00098-.00659-.00049-.00537-.00049-.00635-.00049-.00562-.00049-.00659-.00049-.00525-.00098-.00671-.00049-.00525-.00098-.00879v-.00293l-.00146-.01184v-.00354l-.00098-.00842-.00049-.00427-.00098-.00769-.00049-.00488-.00049-.00708-.00049-.00488-.00098-.00696-.00049-.00513-.00049-.00757-.00049-.00415-.00098-.0083-.00049-.00732-.00098-.00781-.00049-.00574-.00098-.0061-.00049-.00562-.00049-.00647-.00098-.00562-.00049-.00598-.00049-.00598-.00098-.00635-.00049-.00525-.00098-.00745-.00049-.00427-.00098-.00854-.00049-.00757-.00098-.00732-.00049-.00574-.00098-.00598-.00049-.00562-.00098-.00647-.00049-.00586-.00049-.00549-.00098-.00635-.00049-.00537-.00098-.00659-.00049-.00537-.00049-.0061-.00098-.00635-.00098-.0105-.00098-.00623-.00049-.00586-.00098-.00586-.00049-.00562-.00098-.00659-.00049-.00525-.00098-.00635-.00049-.00562-.00098-.0061-.00049-.00598-.00049-.00537-.00098-.00635-.00098-.00769-.00098-.00879-.00098-.00635-.00049-.00574-.00098-.0061-.00049-.00537-.00098-.00671-.00098-.00549-.00049-.0061-.00098-.00562-.00049-.00623-.00098-.00574-.00098-.00671-.00049-.00488-.00098-.00964-.00098-.00745-.00098-.00598-.00098-.00537-.00049-.00659-.00098-.00525-.00049-.00647-.00098-.00574-.00098-.00549-.00049-.00635-.00098-.00562-.00098-.0061-.00049-.00623-.00098-.00537-.00146-.01099-.00098-.00635-.00049-.00549-.00098-.0061-.00098-.00574-.00049-.00549-.00098-.00647-.00098-.00549-.00049-.00598-.00098-.00598-.00098-.00525-.00098-.00659-.00049-.00513-.00146-.01062-.00098-.00671-.00098-.00598-.00098-.00586-.00049-.00623-.00098-.00513-.00098-.00659-.00098-.00525-.00049-.00647-.00098-.005-.00098-.00647-.00098-.00574-.00049-.00586-.00146-.00671-.00098-.00854-.00098-.00769-.00098-.00464-.00098-.00696-.00098-.00537-.00098-.00647-.00049-.005-.00098-.00671-.00098-.00549-.00098-.00623-.00098-.00537-.00098-.00684-.00049-.00488-.00195-.01147-.00049-.00244-.00146-.00891-.00098-.00574-.00098-.00598-.00049-.00574-.00098-.00598-.00098-.00562-.00098-.00598-.00098-.00598-.00098-.00513-.00098-.00671-.00098-.00476-.00098-.00659-.00098-.00793-.00146-.00891-.00098-.00562-.00098-.00635-.00098-.00525-.00098-.0061-.00098-.00586-.00098-.00549-.00098-.00635-.00098-.00549-.00098-.00586-.00098-.00586-.00098-.005-.00244-.0155-.00049-.00208-.00098-.00684-.00098-.00439-.00098-.00708-.00098-.00452-.00098-.00684-.00098-.00464-.00098-.00684-.00098-.00488-.00098-.00671-.00098-.00427-.00098-.00732-.00098-.00354-.00439-.02576-.00049-.00415-.00146-.00659-.00098-.00513-.00098-.00623-.00098-.00574-.00098-.00537-.00098-.00623-.00098-.00586-.00098-.00549-.00146-.00586-.00098-.00635-.00146-.00903-.00146-.0072-.00098-.00586-.00098-.00549-.00146-.00647-.00049-.00513-.00146-.0061-.00098-.00537-.00098-.0061-.00098-.00574-.00146-.00586-.00098-.00537-.00098-.00623-.00098-.00586-.00195-.01038-.00098-.0061-.00146-.0061-.00098-.00537-.00098-.0061-.00098-.00537-.00146-.00623-.00098-.00549-.00098-.00562-.00146-.00598-.00098-.00586-.00098-.00598-.00098-.00537-.00146-.00732-.00195-.00854-.00098-.00684-.00098-.00537-.00146-.00586-.00098-.00586-.00146-.00598-.00098-.00549-.00098-.00574-.00098-.00574-.00146-.00647-.00098-.005-.00146-.00659-.00098-.00513-.00195-.01099-.00098-.00452-.00146-.00684-.00098-.00562-.00146-.00598-.00098-.00537-.00146-.0061-.00098-.00574-.00098-.00586-.00146-.00537-.00098-.0061-.00146-.00574-.00098-.00598-.00098-.00525-.00244-.01099-.00098-.00488-.00146-.00684-.00098-.00525-.00146-.00586-.00098-.00598-.00146-.00562-.00098-.00574-.00146-.00586-.00098-.00549-.00146-.00635-.00098-.00525-.00098-.00525-.00537-.02405-.00098-.00415-.00146-.00684-.00098-.00452-.00146-.00671-.00098-.00464-.00146-.00671-.00098-.00488-.00146-.00623-.00098-.005-.00146-.00671-.00049-.00293-.00586-.02625-.00098-.00378-.00146-.0072-.00098-.00378-.00146-.00732-.00098-.00415-.00146-.00708-.00098-.00403-.00146-.00708-.00098-.00403-.0083-.03723-.00098-.00269-.00146-.00806-.00098-.00305-.00146-.00769-.00098-.00366-.00195-.00757-.00049-.00342-.00195-.00757-.00098-.00354-.0083-.03735-.00098-.00293-.00195-.00818-.00049-.00256-.00195-.00854-.00049-.00232-.00195-.00867-.00049-.00232-.00244-.00854-.00049-.0022-.00879-.03845-.00098-.00269-.00195-.00806-.00049-.00293-.00195-.00781-.00098-.00342-.00195-.00781-.00049-.00305-.00195-.00781-.00098-.00281-.00684-.02844v-.00098l-.00195-.0083-.00098-.00305-.00195-.00781-.00098-.00305-.00195-.00806-.00049-.00281-.00195-.00842-.00049-.00171-.00244-.00916v-.00037l-.00732-.02917-.00049-.00244-.00195-.00745-.00098-.00391-.00195-.00732-.00098-.00366-.00195-.00708-.00098-.00427-.00195-.00708-.00098-.00366-.00146-.00732-.00098-.00281-.00684-.02722-.00098-.00208-.00195-.00781-.00098-.00354-.00195-.00769-.00049-.00293-.00244-.00806-.00049-.00281-.00244-.0083-.00049-.00183-.01025-.03943-.00049-.00122-.00195-.00842-.00098-.00281-.00195-.00818-.00098-.00244-.00195-.00818-.00098-.00293-.00195-.0083-.00049-.00146-.01074-.03894-.00049-.00208-.00195-.00806-.00098-.00305-.00244-.00793-.00049-.00269-.00244-.0083-.00049-.00232-.00244-.00854-.00049-.00146-.0083-.02991v-.00012l-.00244-.00854-.00049-.00244-.00244-.00818-.00049-.00269-.00244-.00806-.00098-.00293-.00195-.00781-.00098-.00305-.00244-.00806v-.00159l-.0083-.02905-.00049-.00073-.00244-.00916-.00049-.00159-.00244-.00854-.00098-.00256-.00244-.00818-.00049-.00232-.00244-.00879-.00049-.00122-.01416-.04956-.00049-.00195-.00244-.00818-.00098-.00281-.00244-.00818-.00049-.00208-.00293-.00879v-.0011l-.01221-.04004v-.00061l-.00293-.00903-.00049-.00171-.00244-.00854-.00049-.00244-.00244-.00818-.00098-.00232-.00244-.00867-.00049-.00134-.01172-.0387-.00049-.00183-.00244-.00793-.00098-.00305-.00244-.00745-.00098-.00342-.00244-.00769-.00098-.00269-.00244-.00806-.00049-.00244-.01172-.03772-.00049-.00183-.00293-.00818-.00049-.00269-.00244-.00781-.00098-.00305-.00244-.00781-.00098-.00244-.00244-.0083-.00049-.00159-.0127-.03882v-.00122l-.00293-.00867-.00098-.0022-.00244-.00806-.00098-.00281-.00244-.00818-.00049-.00171-.01611-.04907-.00049-.0011-.00293-.00928-.00049-.0011-.00293-.00916-.00049-.00146-.00293-.00928v-.00037l-.0166-.0498-.00049-.00122-.00293-.00903-.00049-.00146-.00293-.00891-.00049-.00134-.02002-.05945-.00049-.00122-.00293-.00891-.00049-.00159-.00293-.00879-.00049-.00159-.021-.05981h0l-.00342-.01013v-.00012l-.00342-.00989v-.00037l-.021-.05969-.00049-.00122-.00342-.0094v-.00061l-.00342-.00952-.00049-.00061c-.00684-.02014-.01416-.03979-.02148-.05994v-.00024l-.00342-.00977-.00049-.00061-.00342-.00952v-.00049l-.01807-.04993h0l-.00391-.00964v-.00085l-.00342-.00928-.00049-.00085-.00342-.00928v-.00073l-.01855-.04944v-.00037l-.00391-.0094v-.00085l-.02637-.06946v-.00024l-.00391-.00952v-.00085l-.00391-.00952h0c-.00732-.02002-.01514-.03967-.02295-.05957v-.00037l-.00391-.0094v-.00098l-.02295-.05847-.00049-.00085-.00342-.00928-.00049-.00073-.00342-.00891-.00098-.00171-.00342-.00867v-.00098l-.01953-.04822-.00049-.00098-.00342-.00879-.00049-.00134-.00342-.00879-.00049-.00122-.02393-.05859v-.00012l-.0083-.01965v-.00012c-.01855-.04602-.0376-.09143-.05713-.13721v-.00073l-.03369-.07788v-.00037l-.00391-.00964v-.00012l-.02979-.06812v-.00024c-.02295-.052-.0459-.10352-.06934-.15515v-.00061c-.67627-1.49548-1.60742-2.85071-2.73828-4.01074h0l-.05127-.05225-.00049-.00037-.00684-.00708-.00049-.00049-.04346-.04395-.00098-.00073-.00635-.00659-.00146-.00122-.00635-.00647-.00098-.0011-.00635-.00647-.00146-.0011-.03613-.03613h0l-.00732-.0072-.00049-.00049-.00684-.00708-.00049-.00024-.04443-.04382-.00049-.00037-.00684-.00671-.00098-.00098-.00684-.00659-.00049-.00085-.00684-.00659-.00098-.00061-.02881-.02832-.00049-.00061-.00732-.00696-.00049-.00037-.00684-.00671-.00098-.00098-.00684-.00647-.00098-.00085-.00684-.00659-.00049-.00061-.02881-.02771-.00146-.00122-.00635-.0061-.00146-.00146-.00586-.00586-.00195-.00171-.00635-.0061-.00098-.0011-.00684-.0061-.00146-.00171-.02783-.02625-.00195-.00183-.00586-.00562-.00195-.00183-.00586-.00574-.00195-.00159-.00635-.0061-.00049-.00061-.0293-.02759-.00098-.00098-.00635-.00562-.00195-.00195-.00586-.00549-.00195-.00208-.00586-.00525-.00244-.00244-.00586-.00513-.00244-.00232-.00537-.00513-.00195-.00171-.02002-.01868-.00146-.00159-.00586-.00513-.00293-.00269-.00537-.005-.00244-.0022-.00537-.00513-.00293-.00256-.00537-.005-.00244-.00232-.00537-.00513-.00146-.00134-.021-.01892-.00146-.00159-.00537-.005-.00293-.00269-.00537-.00476-.00293-.00281-.00537-.00452-.00293-.00305-.00537-.00452-.00391-.00354-.00391-.00366-.00635-.00598-.00537-.00476-.00439-.00427-.00439-.00378-.00391-.00366-.00439-.00391-.00439-.00391-.00391-.00366-.00439-.00366-.00439-.00403-.00391-.00342-.00439-.00415-.00391-.00354-.00439-.00391-.00391-.00366-.00879-.00793-.00342-.00281-.00537-.00464-.00293-.00281-.00488-.00439-.00342-.00305-.00537-.00464-.00293-.00269-.00488-.00452-.00391-.0033-.00488-.00415-.00439-.00403-.00342-.0033-.00732-.0061-.00537-.00476-.00391-.00378-.00439-.00366-.00391-.00378-.00439-.00378-.00439-.00378-.00439-.00378-.00391-.0033-.00439-.00415-.00439-.00378-.00391-.00354-.00635-.00537-.00195-.00195-.00879-.00745-.00195-.00208-.00635-.00537-.00342-.00305-.00537-.00439-.00342-.00305-.00488-.00439-.00391-.0033-.00488-.00427-.00342-.00305-.00537-.00464-.00342-.00293-.01709-.01477-.00195-.00171-.00684-.00574-.00293-.00269-.00537-.00464-.00342-.00281-.00537-.00488-.00342-.00269-.00537-.00488-.00293-.00256-.00635-.00525-.00244-.0022-.01758-.01477-.00244-.0022-.00586-.00525-.00293-.00256-.00586-.005-.00293-.00232-.00586-.00513-.00342-.00256-.00586-.005-.00244-.00232-.00732-.00598-.00146-.00134-.01758-.01489-.00244-.00208-.00635-.00537-.00293-.0022-.00586-.00525-.00293-.0022-.00635-.00549-.00244-.00183-.00684-.00598-.00195-.00146-.02686-.02271-.00049-.00024-.0083-.00696-.00195-.00159-.00732-.0061-.00146-.0011-.00781-.00671-.00098-.00073-.05469-.04529-.00098-.00085-.00879-.00708-.00049-.00024-.04639-.03772-.00049-.00049-.0083-.00696-.00098-.00061-.00879-.00708-.00049-.00037-.03711-.03003-.00049-.00024-.00879-.0072-.00049-.00049-.00879-.00696-.00049-.00049-.01855-.01489h0Z" />
                    <g id="slot0_add">
                        <path class="cls-7"
                            d="M92.97445,942.75991h3.82471c1.8623,0,3.37256,1.51001,3.37256,3.37256v3.99854c0,1.86255,1.50977,3.37256,3.37256,3.37256h.34766c1.86279,0,3.37256-1.51001,3.37256-3.37256v-3.99854c0-1.86255,1.50977-3.37256,3.37256-3.37256h3.82422c1.86279,0,3.37256-1.51001,3.37256-3.37256,0-1.86267-1.50977-3.37268-3.37256-3.37268h-3.82422c-1.86279,0-3.37256-1.50989-3.37256-3.37256v-3.99841c0-1.86255-1.50977-3.37256-3.37256-3.37256h-.34766c-1.86279,0-3.37256,1.51001-3.37256,3.37256v3.99841c0,1.86267-1.51025,3.37256-3.37256,3.37256h-3.82471c-1.86279,0-3.37305,1.51001-3.37305,3.37268,0,1.86255,1.51025,3.37256,3.37305,3.37256Z" />
                        <path class="cls-7"
                            d="M134.81556,974.49805c0-1.09204-.15723-1.52612-.48828-1.52612-1.2832,0-5.18213,6.50903-12.69727,6.50903-4.43506,0-10.12793-2.26453-17.28955-9.47058-6.51367-6.55371-13.4707-9.66138-19.20361-9.66199l-.00195,.00012c-6.32715,.00012-11.24854,4.02771-12.35889,11.14124,0,17.17493,13.92285,31.0979,31.09814,31.0979,14.86963,0,27.29834-10.43701,30.36816-24.38403l.00342-.00391,.0083-.04565c.00635-.02942,.01465-.05811,.021-.08765,.00391-.01917,.00195-.03589,.00537-.05493l.36523-2.0011,.16992-1.51233Zm-30.94141,24.0896c-14.75244,0-26.78125-11.85205-27.08398-26.53345,.70947-4.9292,3.66016-7.70581,8.34473-7.70581v-.00427l.00146,.00427c5.04492,.00049,11.01025,3.09192,16.36719,8.48169,7.02393,7.06738,13.79541,10.65088,20.12646,10.65088,2.83398,0,5.26904-.71313,7.30518-1.69287-4.06201,9.84839-13.76367,16.79956-25.06104,16.79956Z" />
                    </g>
                </g>
                <g id="slot1_empty" class="cls-19">
                    <g>
                        <path class="cls-7"
                            d="M88.01652,763.05562h-1.39648c-7.73242,0-14,6.26807-14,14v1.39661h4v-.8053c0-5.84937,4.7417-10.59131,10.59082-10.59131h.80566v-4Z" />
                        <path class="cls-7" d="M112.71783,876.70101v-4h-18v4h18Z" />
                        <path class="cls-7" d="M72.61982,803.66578h4v-18h-3.99999v18h0Z" />
                        <path class="cls-7" d="M72.61982,828.87938h4v-18h-3.99999v18h0Z" />
                        <path class="cls-7" d="M72.61982,854.09297h4v-18h-3.99999v18h0Z" />
                        <path class="cls-7" d="M130.81561,803.66578h4v-18h-3.99999v18h0Z" />
                        <path class="cls-7" d="M130.81561,828.87938h4v-18h-3.99999v18h0Z" />
                        <path class="cls-7" d="M130.81561,854.09297h4v-18h-3.99999v18h0Z" />
                        <path class="cls-7" d="M112.71783,767.05562v-4h-18v4h18Z" />
                        <path class="cls-7"
                            d="M119.41914,763.05562h1.39648c7.73242,0,14,6.26807,14,14v1.39661h-4v-.8053c0-5.84937-4.7417-10.59131-10.59082-10.59131h-.80566v-4Z" />
                        <path class="cls-7"
                            d="M88.01652,876.70322h-1.39648c-7.73242,0-14-6.26807-14-14v-1.39661h4v.8053c0,5.84937,4.7417,10.59131,10.59082,10.59131h.80566v4Z" />
                        <path class="cls-7"
                            d="M119.41914,876.70322h1.39648c7.73242,0,14-6.26807,14-14v-1.39661h-4v.8053c0,5.84937-4.7417,10.59131-10.59082,10.59131h-.80566v4Z" />
                    </g>
                    <g id="slot1_add">
                        <path class="cls-7"
                            d="M114.46143,814.94454h-3.82429c-1.86264,0-3.3726-1.50996-3.3726-3.3726v-3.99838c0-1.86264-1.50996-3.3726-3.3726-3.3726h-.34779c-1.86264,0-3.3726,1.50996-3.3726,3.3726v3.99838c0,1.86264-1.50996,3.3726-3.3726,3.3726h-3.82476c-1.86264,0-3.3726,1.50996-3.3726,3.3726h0c0,1.86264,1.50996,3.37261,3.3726,3.37261h3.82476c1.86264,0,3.3726,1.50996,3.3726,3.3726v3.99844c0,1.86264,1.50996,3.3726,3.3726,3.3726h.34779c1.86264,0,3.3726-1.50996,3.3726-3.3726v-3.99844c0-1.86264,1.50996-3.3726,3.3726-3.3726h3.82429c1.86264,0,3.3726-1.50996,3.3726-3.3726h0c0-1.86264-1.50996-3.37261-3.3726-3.37261Z" />
                        <path class="cls-7"
                            d="M134.32734,847.08647c-1.2832,0-5.18213,6.50903-12.69727,6.50903-4.43506,0-10.12793-2.26453-17.28955-9.47058-6.51367-6.55371-13.4707-9.66138-19.20361-9.66199l-.00195,.00012v0c-7.23096,.00024-12.51514,4.94348-12.51514,14.14954v14.0907c0,7.73193,6.26758,14,14,14h34.1958c7.73193,0,14-6.26807,14-14v-14.0907c0-1.09204-.15723-1.52612-.48828-1.52612Zm-3.51172,13.32947v2.28735c0,5.51404-4.48584,10-10,10h-34.1958c-5.51416,0-10-4.48596-10-10v-14.0907c0-6.4502,3.10352-10.14966,8.51514-10.14966v-.00427l.00146,.00427c5.04492,.00049,11.01025,3.09192,16.36719,8.48169,7.02393,7.06738,13.79541,10.65088,20.12646,10.65088,3.76611,0,6.82812-1.25854,9.18555-2.7301v5.55054Z" />
                    </g>
                </g>
                <g id="slot0_content">
                    <path id="slot0_content_back" class="cls-6"
                        d="M86.77595,888.9422h34.196c7.72681,0,14,6.27319,14,14v68.54749c0,17.16344-13.93453,31.09797-31.09797,31.09797h-.00006c-17.16344,0-31.09797-13.93453-31.09797-31.09797v-68.54749c0-7.72681,6.27319-14,14-14Z" />
                    <path class="cls-8"
                        d="M125.30081,894.15454c2.58789,0,4.03125-1.33179,3.81934-2.58154-2.29688-1.64917-5.10498-2.63086-8.14795-2.63086h-34.19629c-3.04297,0-5.85156,.98169-8.14795,2.63086-.21191,1.24976,1.23145,2.58154,3.81934,2.58154h42.85352Z" />
                    <path class="cls-9"
                        d="M127.86251,893.5713c.49957-.27019,.86113-.61713,1.06721-.99732,.12158-.52319,.20361-.92358,.19043-1.00098-2.29688-1.64917-5.10498-2.63086-8.14795-2.63086h-14.91406c3.42041,1.6582,9.93896,.65771,13.95264,1.72034,2.75456,.72925,4.18945,1.55892,4.95168,2.34314,.76559,.78769,1.93387,1.08824,2.90006,.56568Z" />
                    <path id="slot0_content_back1" class="cls-2"
                        d="M86.90585,888.94214h33.63514c7.88158,0,14.28043,6.39885,14.28043,14.28043v68.267c0,17.16344-13.93453,31.09797-31.09797,31.09797h-.00006c-17.16344,0-31.09797-13.93453-31.09797-31.09797v-68.267c0-7.88158,6.39885-14.28043,14.28043-14.28043Z" />
                    <text id="slot0_number" transform="translate(103.87395 945.76493)"></text>
                </g>
                <g id="slot1_content">
                    <rect id="slot1_content_back" class="cls-26" x="72.62542" y="763.1257" width="62.196"
                        height="113.6454" rx="14" ry="14" />
                    <rect id="slot1_content_back1" class="cls-4" x="72.62542" y="763.06087" width="62.196"
                        height="113.6454" rx="14" ry="14" />
                    <path class="cls-8"
                        d="M125.30081,768.3381c2.58789,0,4.03125-1.33179,3.81934-2.58154-2.29688-1.64917-5.10498-2.63086-8.14795-2.63086h-34.19629c-3.04297,0-5.85156,.98169-8.14795,2.63086-.21191,1.24976,1.23145,2.58154,3.81934,2.58154h42.85352Z" />
                    <path class="cls-9"
                        d="M127.86251,767.75486c.49957-.27019,.86113-.61713,1.06721-.99732,.12158-.52319,.20361-.92358,.19043-1.00098-2.29688-1.64917-5.10498-2.63086-8.14795-2.63086h-14.91406c3.42041,1.6582,9.93896,.65771,13.95264,1.72034,2.75456,.72925,4.18945,1.55892,4.95168,2.34314,.76559,.78769,1.93387,1.08824,2.90006,.56568Z" />
                    <text id="slot1_number" transform="translate(103.71772 819.9484)"></text>
                </g>
                <g id="slot2_content">
                    <rect id="slot2_content_back" class="cls-28" x="72.62542" y="637.17492" width="62.196"
                        height="113.6454" rx="14" ry="14" />
                    <rect id="slot2_content_back1" class="cls-1" x="72.62542" y="637.17492" width="62.196"
                        height="113.6454" rx="14" ry="14" />
                    <path class="cls-8"
                        d="M125.30081,642.38732c2.58789,0,4.03125-1.33179,3.81934-2.58154-2.29688-1.64917-5.10498-2.63086-8.14795-2.63086h-34.19629c-3.04297,0-5.85156,.98169-8.14795,2.63086-.21191,1.24976,1.23145,2.58154,3.81934,2.58154h42.85352Z" />
                    <path class="cls-9"
                        d="M127.86251,641.80408c.49957-.27019,.86113-.61713,1.06721-.99732,.12158-.52319,.20361-.92358,.19043-1.00098-2.29688-1.64917-5.10498-2.63086-8.14795-2.63086h-14.91406c3.42041,1.6582,9.93896,.65771,13.95264,1.72034,2.75456,.72925,4.18945,1.55892,4.95168,2.34314,.76559,.78769,1.93387,1.08824,2.90006,.56568Z" />
                    <text id="slot2_number" transform="translate(103.71772 693.99762)"></text>
                </g>
                <g id="slot3_content">
                    <rect id="slot3_content_back" class="cls-24" x="72.62542" y="511.30139" width="62.196"
                        height="113.6454" rx="14" ry="14" />
                    <rect id="slot3_content_back1" class="cls-5" x="72.62542" y="511.30139" width="62.196"
                        height="113.6454" rx="14" ry="14" />
                    <path class="cls-8"
                        d="M125.30081,516.51379c2.58789,0,4.03125-1.33179,3.81934-2.58154-2.29688-1.64917-5.10498-2.63086-8.14795-2.63086h-34.19629c-3.04297,0-5.85156,.98169-8.14795,2.63086-.21191,1.24976,1.23145,2.58154,3.81934,2.58154h42.85352Z" />
                    <path class="cls-9"
                        d="M127.86251,515.93055c.49957-.27019,.86113-.61713,1.06721-.99732,.12158-.52319,.20361-.92358,.19043-1.00098-2.29688-1.64917-5.10498-2.63086-8.14795-2.63086h-14.91406c3.42041,1.6582,9.93896,.65771,13.95264,1.72034,2.75456,.72925,4.18945,1.55892,4.95168,2.34314,.76559,.78769,1.93387,1.08824,2.90006,.56568Z" />
                    <text id="slot3_number" transform="translate(103.71772 568.12409)"></text>
                </g>
                <g id="slot4_content">
                    <rect id="slot4_content_back" class="cls-10" x="72.62542" y="385.42786" width="62.196"
                        height="113.6454" rx="14" ry="14" />
                    <rect id="slot4_content_back1" class="cls-3" x="72.62542" y="385.42786" width="62.196"
                        height="113.6454" rx="14" ry="14" />
                    <path class="cls-8"
                        d="M125.30081,390.64026c2.58789,0,4.03125-1.33179,3.81934-2.58154-2.29688-1.64917-5.10498-2.63086-8.14795-2.63086h-34.19629c-3.04297,0-5.85156,.98169-8.14795,2.63086-.21191,1.24976,1.23145,2.58154,3.81934,2.58154h42.85352Z" />
                    <path class="cls-9"
                        d="M127.86251,390.05702c.49957-.27019,.86113-.61713,1.06721-.99732,.12158-.52319,.20361-.92358,.19043-1.00098-2.29688-1.64917-5.10498-2.63086-8.14795-2.63086h-14.91406c3.42041,1.6582,9.93896,.65771,13.95264,1.72034,2.75456,.72925,4.18945,1.55892,4.95168,2.34314,.76559,.78769,1.93387,1.08824,2.90006,.56568Z" />
                    <text id="slot4_number" transform="translate(103.71772 442.25056)"></text>
                </g>
                <g id="foreground">
                    <g>
                        <path class="cls-17"
                            d="M74.29779,996.33287c7.8616,9.21207,21.50454,10.53563,30.81367,2.78921,7.55107-6.28349,12.36579-15.74682,12.36579-26.31649v-372.65747h-52.42529v371.12744c0,9.55291,3.48335,18.30495,9.24584,25.05731Z" />
                        <path class="cls-23"
                            d="M104.17806,974.37248v-292.67146c0-7.1319-5.78155-12.91345-12.91345-12.91345h-.00003c-7.1319,0-12.91345,5.78155-12.91345,12.91345v292.67146c0,8.13868,5.60371,17.62291,12.68991,17.68679l4.24003,.00602c7.17712,.0647,8.897-10.51541,8.897-17.69282Z" />
                        <path class="cls-15"
                            d="M142.3949,613.53729H60.26533v24.28235h2.95095s39.12629-.13005,39.18772-.13047c12.83617-.08901,23.29548,10.2919,23.29548,23.12837v315.4275c0,16.77197-7.35358,30.75195-23.29548,33.66858,.43896,.01477,.87695,.03345,1.31934,.03345,21.32373,0,38.67139-17.3479,38.67139-38.67151l.00018-357.73827Z" />
                        <path class="cls-18"
                            d="M65.05195,970.25273c.97607,3.88123,1.99268,7.63733,3.35156,11.24231,1.33008,3.61731,2.92041,7.03552,5.0874,10.16821,2.13574,3.19702,4.5332,6.21924,7.27344,8.92725,2.75098,2.68506,5.78271,5.16431,9.36084,6.88818-1.97412-.32495-3.8667-1.09778-5.65869-2.01453-1.79883-.92017-3.49316-2.04736-5.09277-3.29199-3.18018-2.51917-5.93262-5.5564-8.28906-8.84302-1.21436-1.6095-2.26514-3.45239-3.10693-5.30859-.89648-1.8512-1.49707-3.81213-2.02734-5.76892-.49316-1.97009-.83545-3.96753-.99072-5.97717-.16016-2.00574-.18555-4.02649,.09229-6.02173Z" />
                        <g class="cls-19">
                            <path class="cls-7"
                                d="M88.61227,983.11414c-2.68923,0-6.04499-4.59661-6.04499-10.17623v-178.30231c0-1.72556,1.39884-3.1244,3.1244-3.1244h0c1.72556,0,3.1244,1.39884,3.1244,3.1244v178.30231c0,7.98726,.66571,10.17623-.20382,10.17623Z" />
                            <rect class="cls-7" x="82.56728" y="705.72772" width="6.24881" height="74.18651" rx="3.1244"
                                ry="3.1244" />
                        </g>
                        <path class="cls-16"
                            d="M101.33012,1009.91357c8.29127-.23607,18.4406-4.50505,25.6898-10.96929,6.8685-6.12476,10.60042-14.29685,11.57962-20.69427,.85987-5.61783,1.00115-25.83886,1.47676-28.72656,.18205-1.10534,1.20857-3.64199,2.31844-3.49h0v22.9586c-.00001,5.60538-.93987,12.4206-2.12078,15.62292-5.42575,16.02427-22.49263,25.7889-38.94383,25.2986h0Z" />
                    </g>
                    <g class="cls-30">
                        <path class="cls-21"
                            d="M60.26533,607.63855v11.9696s18.54443,5.45715,45.37256,5.45715,41.53223-5.35034,41.53223-5.35034v-12.07642H60.26533Z" />
                        <rect class="cls-12" x="54.00025" y="585.72787" width="99.44616" height="27.81513" rx="9.35093"
                            ry="9.35093" />
                        <path class="cls-20"
                            d="M144.09524,585.72778h-13.27963c3.2102,3.76427-14.01863,8.04452-46.21608,7.96809-6.16211-.01463-2.27389,19.84713-22.22293,13.94267-7.69434-3.42285-8.37462-9.76602-8.37609-9.79618v6.34977c0,2.32019,.84961,4.43872,2.24902,6.07324,.2041,.23865,.42139,.46594,.64844,.68298,.03076,.02942,.06299,.05676,.09424,.08582,.20068,.18652,.40869,.36475,.625,.53345,.05322,.04138,.10742,.08081,.16162,.12085,.19873,.14856,.40381,.28931,.61475,.42188,.07227,.04529,.14502,.08936,.21875,.13281,.19873,.11768,.40283,.22681,.61035,.32959,.08887,.0437,.17725,.08765,.26709,.12866,.19971,.09106,.40479,.17236,.61182,.24951,.10156,.03784,.20264,.07764,.30566,.11194,.20508,.06824,.41504,.12463,.62598,.17859,.10889,.02783,.21631,.06006,.32666,.08411,.22266,.04846,.45068,.0824,.6792,.11475,.10156,.01428,.20068,.03528,.30322,.04626,.33154,.03577,.66748,.0564,1.0083,.0564h80.74463c5.16455,0,9.35107-4.18652,9.35107-9.35083v-9.11328c0-5.16443-4.18652-9.35107-9.35107-9.35107Z" />
                        <path class="cls-22"
                            d="M153.44632,604.19214v-9.11328c0-5.16443-4.18652-9.35107-9.35107-9.35107h-5.51482c.00146,.00366,4.23264,5.35693,3.45627,13.90759-.63665,3.23247-2.0957,5.91467-14.48975,8.51233-5.67041,1.18848-18.73637,2.98657-35.02202,4.07642-.01416,.00024-3.88867,.0686-9.01318-.01782-6.40186-.17505-15.47607-.79639-20.61572-2.8197-8.50684-3.34875-8.89404-9.71741-8.89551-9.74854v4.55408c0,2.32019,.84961,4.43872,2.24902,6.07324,.2041,.23865,.42139,.46594,.64844,.68298,.03076,.02942,.06299,.05676,.09424,.08582,.20068,.18652,.40869,.36475,.625,.53345,.05322,.04138,.10742,.08081,.16162,.12085,.19873,.14856,.40381,.28931,.61475,.42188,.07227,.04529,.14502,.08936,.21875,.13281,.19873,.11768,.40283,.22681,.61035,.32959,.08887,.0437,.17725,.08765,.26709,.12866,.19971,.09106,.40479,.17236,.61182,.24951,.10156,.03784,.20264,.07764,.30566,.11194,.20508,.06824,.41504,.12463,.62598,.17859,.10889,.02783,.21631,.06006,.32666,.08411,.22266,.04846,.45068,.0824,.6792,.11475,.10156,.01428,.20068,.03528,.30322,.04626,.33154,.03577,.66748,.0564,1.0083,.0564h80.74463c5.16455,0,9.35107-4.18652,9.35107-9.35083Z" />
                        <path class="cls-9"
                            d="M62.43201,588.95698l.90777,.00837s-.61008,10.97256,2.21656,11.35473c1.66307,.22485,2.08356-1.13304,2.14794-5.5822,.04641-3.20736,2.65798-5.78087,5.86567-5.78087l26.37354,.00002c4.68153,0,9.40127-1.71975,6.9172-3.22915h0c0-.89175-2.47188-.00015-3.90254-.00015H62.43201c-1.43064,0-2.5904,.72289-2.5904,1.61463h0c0,.89174,1.15976,1.61463,2.5904,1.61463Z" />
                    </g>
                </g>
            </g>
        </g>
    </g>
</svg>