<?xml version="1.0" encoding="UTF-8"?><svg id="Layer_2" xmlns="http://www.w3.org/2000/svg" viewBox="0 0 113.3 756.55">
    <defs>
        <style>
            .cls-1,
            .cls-2 {
                fill: #fff;
            }

            .cls-3 {
                fill: #f84f8e;
            }

            .cls-4,
            .cls-2 {
                opacity: .3;
            }

            .cls-5 {
                fill: #b7bfc4;
            }

            .cls-6 {
                fill: #fcfcfc;
                font-family: ArialMT, Arial;
                font-size: 76px;
            }

            .cls-6,
            .cls-2 {
                isolation: isolate;
            }

            .cls-7 {
                fill: #ccd1d7;
            }

            .cls-2 {
                stroke: #fff;
                stroke-miterlimit: 10;
                stroke-width: 23.3px;
            }
        </style>
    </defs>
    <g id="Layer_2-2">
        <g id="b01">
            <path class="cls-2"
                d="M17.6,304.25H95.6v395.6c0,21.5-17.5,39-39,39h0c-21.5,0-39-17.5-39-39V304.25q.1,0,0,0Z" />
            <g class="cls-4">
                <path class="cls-1"
                    d="M78.1,481.15h-15.4v4h15.4v-4h0Zm-26.4,0h-15.4v4h15.4v-4h0Zm-25.1,4.2c-.2,.3-.5,.6-.6,.9h0c-.4,.7-.7,1.5-.9,2.3h0v8.1h4v-4.1c0-1.6,.5-3.1,1.5-4.3l-3.1-2.5h0l-.9-.4Zm1.6,25.9h-4v15.4h4v-15.4h0Zm0,26.5h-4v15.4h4v-15.4h0Zm0,26.4h-4v15.4h4v-15.4h0Zm.1,25.7l-3.9,.7c.2,1.1,.6,2.2,1.1,3.2h0v.1h0l.1,.1h0c1.8,1.5,4,2.4,6.5,2.5h.4v-4c-3.4,0-6.3-2.5-6.9-5.8h0l2.7,3.2Zm33.4,5.8h-15.5v4h15.4v-4h.1Zm21.9-2.7c-1.3,1.7-3.3,2.7-5.5,2.7h-5.4v4h6.9c2.5-.3,4.8-1.5,6.5-3.3h0c.1-.2,.3-.3,.4-.5l-2.9-2.9h0Zm5.5-23.4h-4v15.4h4v-15.4h0Zm0-26.4h-4v15.4h4v-15.4h0Zm0-26.4h-4v15.4h4v-15.4h0Zm-.2-26.4l-3.9,.7c.1,.4,.1,.8,.1,1.2v13.6h4v-13.6h0v-1.7h0c0-.1,0-.3-.1-.4h0l-.1,.2Zm-10.8-9.2v4c.9,0,1.9,.2,2.7,.6l1.6-3.7c-1.1-.5-2.3-.8-3.6-.8h-.3l-.4-.1h0Z" />
                <g id="slot1_add">
                    <path class="cls-1"
                        d="M37.3,559.65c5.3,0,11.6,3.2,17.2,8.9,7.3,7.3,14.3,11.1,20.9,11.1,4,0,7.3-1.4,9.8-3v12.1c0,3.9-3.1,7-7,7H35.2c-3.9,0-7-3.1-7-7v-18.3c0-6.9,3.3-10.8,9.1-10.8m0-4c-7.5,0-13.1,5.2-13.1,14.8v18.3c0,6.1,4.9,11,11,11h42.9c6.1,0,11-4.9,11-11v-18.3c0-1.1-.2-1.6-.5-1.6-1.3,0-5.4,6.8-13.2,6.8-4.6,0-10.6-2.4-18-9.9-6.9-6.9-14.1-10.1-20.1-10.1h0Z" />
                    <path class="cls-1"
                        d="M67.9,532.85h-4c-1.9,0-3.5-1.6-3.5-3.5v-4.2c0-1.9-1.6-3.5-3.5-3.5h-.4c-1.9,0-3.5,1.6-3.5,3.5v4.2c0,1.9-1.6,3.5-3.5,3.5h-4c-1.9,0-3.5,1.6-3.5,3.5h0c0,1.9,1.6,3.5,3.5,3.5h4c1.9,0,3.5,1.6,3.5,3.5v4.2c0,1.9,1.6,3.5,3.5,3.5h.4c1.9,0,3.5-1.6,3.5-3.5v-4.2c0-1.9,1.6-3.5,3.5-3.5h4c1.9,0,3.5-1.6,3.5-3.5h0c0-1.9-1.6-3.5-3.5-3.5Z" />
                </g>
            </g>
            <g id="border">
                <rect class="cls-5" x="6" y="292.55" width="101.3" height="12" />
                <path class="cls-7"
                    d="M56.7,756.55c-31.3,0-56.7-25.5-56.7-56.7V292.65H12v407.2c0,24.6,20,44.7,44.7,44.7s44.7-20,44.7-44.7V292.65h12v407.2c-.1,31.2-25.5,56.7-56.7,56.7Z" />
            </g>
            <g class="cls-4">
                <g>
                    <path class="cls-1"
                        d="M28.4,458.65l-3.9,.7c.8,4.5,4.3,8.1,8.7,8.9h.1v-4c-1.5,.2-4.4-2.2-4.9-5.6Z" />
                    <path class="cls-1" d="M46.3,468.45h15.4v-4h-15.4v4Z" />
                    <rect class="cls-1" x="36.3" y="349.95" width="15.4" height="4" />
                    <rect class="cls-1" x="24.3" y="432.85" width="4" height="15.4" />
                    <path class="cls-1"
                        d="M28.3,360.95c0-1.6,.5-3.1,1.5-4.3l-3.1-2.5c-.4,.5-.7,.9-1,1.4h0v.1h0v.1h0v.1h0v.1h0v8.1h4v-3.1h-1.4Z" />
                    <rect class="cls-1" x="24.3" y="380.05" width="4" height="15.4" />
                    <rect class="cls-1" x="24.3" y="406.45" width="4" height="15.4" />
                    <rect class="cls-1" x="85.1" y="385.45" width="4" height="15.4" />
                    <rect class="cls-1" x="85.1" y="411.95" width="4" height="15.4" />
                    <path class="cls-1"
                        d="M89.1,360.85h0q0-.1,0,0,0-.1,0,0h0c0-.4-.1-.7-.1-1l-4-.1c.1,.4,.1,.8,.1,1.2v13.6h4v-13.7q0,.1,0,0,0,.1,0,0h0Z" />
                    <rect class="cls-1" x="85.1" y="438.35" width="4" height="15.4" />
                    <path class="cls-1" d="M78.1,464.45h-5.4v4h5.7c1.9-.7,3.5-1.9,4.7-3.5l-3.1-2.5c2.3,1,.3,2-1.9,2Z" />
                    <path class="cls-1"
                        d="M80.9,354.45l1.6-3.7c-.2-.1-.4-.2-.6-.2h0c-.6-.2-1.3-.4-2-.5h-17.2v4h15.4c1-.1,1.9,.1,2.8,.4Z" />
                </g>
                <g id="slot2_add">
                    <path class="cls-1"
                        d="M37.3,428.35c5.3,0,11.6,3.2,17.2,8.9,7.3,7.3,14.3,11.1,20.9,11.1,4,0,7.3-1.4,9.8-3v12.1c0,3.9-3.1,7-7,7H35.2c-3.9,0-7-3.1-7-7v-18.3c0-6.9,3.3-10.8,9.1-10.8m0-4c-7.5,0-13.1,5.2-13.1,14.8v18.3c0,6.1,4.9,11,11,11h42.9c6.1,0,11-4.9,11-11v-18.3c0-1.1-.2-1.6-.5-1.6-1.3,0-5.4,6.8-13.2,6.8-4.6,0-10.6-2.4-18-9.9-6.9-6.9-14.1-10.1-20.1-10.1h0Z" />
                    <path class="cls-1"
                        d="M67.9,401.55h-4c-1.9,0-3.5-1.6-3.5-3.5v-4.2c0-1.9-1.6-3.5-3.5-3.5h-.4c-1.9,0-3.5,1.6-3.5,3.5v4.2c0,1.9-1.6,3.5-3.5,3.5h-4c-1.9,0-3.5,1.6-3.5,3.5h0c0,1.9,1.6,3.5,3.5,3.5h4c1.9,0,3.5,1.6,3.5,3.5v4.2c0,1.9,1.6,3.5,3.5,3.5h.4c1.9,0,3.5-1.6,3.5-3.5v-4.2c0-1.9,1.6-3.5,3.5-3.5h4c1.9,0,3.5-1.6,3.5-3.5h0c0-1.9-1.6-3.5-3.5-3.5Z" />
                </g>
            </g>
            <g class="cls-4">
                <g id="slot3_add">
                    <path class="cls-1"
                        d="M37.3,297.2c5.3,0,11.6,3.2,17.2,8.9,7.3,7.3,14.3,11.1,20.9,11.1,4,0,7.3-1.4,9.8-3v12.1c0,3.9-3.1,7-7,7H35.2c-3.9,0-7-3.1-7-7v-18.3c0-6.9,3.3-10.8,9.1-10.8m0-4c-7.5,0-13.1,5.2-13.1,14.8v18.3c0,6.1,4.9,11,11,11h42.9c6.1,0,11-4.9,11-11v-18.3c0-1.1-.2-1.6-.5-1.6-1.3,0-5.4,6.8-13.2,6.8-4.6,0-10.6-2.4-18-9.9-6.9-6.9-14.1-10.1-20.1-10.1h0Z" />
                    <path class="cls-1"
                        d="M67.9,270.4h-4c-1.9,0-3.5-1.6-3.5-3.5v-4.2c0-1.9-1.6-3.5-3.5-3.5h-.4c-1.9,0-3.5,1.6-3.5,3.5v4.2c0,1.9-1.6,3.5-3.5,3.5h-4c-1.9,0-3.5,1.6-3.5,3.5h0c0,1.9,1.6,3.5,3.5,3.5h4c1.9,0,3.5,1.6,3.5,3.5v4.2c0,1.9,1.6,3.5,3.5,3.5h.4c1.9,0,3.5-1.6,3.5-3.5v-4.2c0-1.9,1.6-3.5,3.5-3.5h4c1.9,0,3.5-1.6,3.5-3.5h0c0-1.9-1.6-3.5-3.5-3.5Z" />
                </g>
            </g>
            <g class="cls-4">
                <path class="cls-1"
                    d="M78.1,612.45h-15.4v4h15.4v-4h0Zm-26.4,0h-15.4v4h15.4v-4h0Zm-25.1,4.2c-.1,.1-.2,.3-.3,.4h0c-.7,1.2-1.2,2.5-1.5,3.9h0v.1h0v8.1h4v-8.1c0-1.6,.5-3.1,1.5-4.3l-3.1-2.5h0l-.6,2.4Zm1.6,25.9h-4v15.4h4v-15.4h0Zm0,26.5h-4v15.4h4v-15.4h0Zm0,26.4h-4v3.1h0v.1h0v.1h0v.1h0v.1h0v.2h0c.3,3.1,1,6.1,2.1,8.9l3.7-1.5c-1.3-3.3-2-6.9-2-10.5v-.5h0l.2-.1Zm7.1,21.8l-3,2.6c.3,.4,.6,.7,1,1.1h0l.1,.1h0c2.6,2.5,5.7,4.5,9,6.1h.2c.1,0,.2,.1,.2,.1l1.5-3.7c-2.3-.1-6-2.8-9-6.3h0Zm33.4,7.1c-3.8,1.8-7.8,2.7-12,2.7h-1.1l-.2,4h2.1c3-.1,5.8-.5,8.5-1.4h0c.3-.1,.5-.2,.8-.2h0c1.2-.4,2.5-.9,3.6-1.4l-1.7-3.7h0Zm15-16.9c-1.4,4.3-3.9,8.2-7.1,11.4l2.8,2.9c3.6-3.6,6.4-8,8.1-13l-3.8-1.3h0Zm5.4-25h-4v15.4h4v-15.4h0Zm0-26.4h-4v15.4h4v-15.4h0Zm0-26.4h-4v15.4h4v-15.4h0Zm-11-17.2v4c2.7,0,5.2,1.6,6.3,4l3.6-1.7c-.1-.2-.2-.4-.3-.5h0c0-.1-.1-.1-.1-.2h0v-.1h-9.5v-5.5Z" />
                <g id="slot0_add">
                    <path class="cls-1"
                        d="M37.3,690.95c5.3,0,11.6,3.2,17.2,8.9,7.3,7.3,14.3,11.1,20.9,11.1,3,0,5.6-.8,7.7-1.9-4.2,10.5-14.5,18-26.4,18-15.1,0-27.5-11.7-28.4-26.7,.4-6.1,3.6-9.4,9-9.4m0-4c-7.2,0-12.5,4.6-13,13.3,.9,17.1,15.1,30.7,32.4,30.7h0c17.2,0,31.3-13.4,32.4-30.3-.1-.4-.2-.6-.4-.6-1.3,0-5.4,6.8-13.2,6.8-4.6,0-10.6-2.4-18-9.9-7-6.8-14.2-10-20.2-10h0Z" />
                    <path class="cls-1"
                        d="M67.9,664.15h-4c-1.9,0-3.5-1.6-3.5-3.5v-4.2c0-1.9-1.6-3.5-3.5-3.5h-.4c-1.9,0-3.5,1.6-3.5,3.5v4.2c0,1.9-1.6,3.5-3.5,3.5h-4c-1.9,0-3.5,1.6-3.5,3.5h0c0,1.9,1.6,3.5,3.5,3.5h4c1.9,0,3.5,1.6,3.5,3.5v4.2c0,1.9,1.6,3.5,3.5,3.5h.4c1.9,0,3.5-1.6,3.5-3.5v-4.2c0-1.9,1.6-3.5,3.5-3.5h4c1.9,0,3.5-1.6,3.5-3.5h0c0-1.9-1.6-3.5-3.5-3.5Z" />
                </g>
            </g>
            <g id="prev_slot0_content">
                <g id="prev_slot0_content_">
                    <path id="prev_slot0_content_back" class="cls-3"
                        d="M77.9,612.45H35.3c-6.1,0-11,4.9-11,11v75.1c0,17.9,14.5,32.5,32.4,32.5h0c17.8,0,32.4-14.5,32.4-32.5v-75.1c-.1-6.1-5.1-11-11.2-11h0Z" />
                    <text id="prev_slot0_number" class="cls-6" transform="translate(58 698.66)">
                    </text>
                </g>
            </g>
            <g id="prev_slot1_content">
                <g id="prev_slot1_content_">
                    <path id="prev_slot1_content_back" class="cls-3"
                        d="M78.1,481.15H35.2c-6.1,0-11,4.9-11,11v96.6c0,6.1,4.9,11,11,11h42.9c6.1,0,11-4.9,11-11v-96.6c0-6.1-4.9-11-11-11h0Z" />
                    <text id="prev_slot1_number" class="cls-6" transform="translate(58 567.61)">
                    </text>
                </g>
            </g>
            <g id="prev_slot2_content">
                <g id="prev_slot2_content_">
                    <path id="prev_slot2_content_back" class="cls-3"
                        d="M89.1,360.95v96.5c0,6.1-4.9,11-11,11H35.3c-6.1,0-11-4.9-11-11v-96.5c0-6.1,4.9-11,11-11h42.9c6,0,10.9,4.9,10.9,11Z" />
                    <text id="prev_slot2_number" class="cls-6" transform="translate(58 436.46)">
                    </text>
                </g>
            </g>
            <g id="prev_slot3_content">
                <g id="prev_slot3_content_">
                    <path id="prev_slot3_content_back" class="cls-3"
                        d="M78.1,218.75H35.2c-6.1,0-11,4.9-11,11v96.6c0,6.1,4.9,11,11,11h42.9c6.1,0,11-4.9,11-11v-96.6c0-6.1-4.9-11-11-11h0Z" />
                    <text id="prev_slot3_number" class="cls-6" transform="translate(58 305.21)">
                    </text>
                </g>
            </g>
            <g id="prev_slot4_content">
                <g id="prev_slot4_content_">
                    <path id="prev_slot4_content_back" class="cls-3"
                        d="M89.1,98.55v96.5c0,6.1-4.9,11-11,11H35.3c-6.1,0-11-4.9-11-11V98.55c0-6.1,4.9-11,11-11h42.9c6,0,10.9,4.9,10.9,11Z" />
                    <text id="prev_slot4_number" class="cls-6" transform="translate(58 174.06)">
                    </text>
                </g>
            </g>
            <g id="slot0_content">
                <g id="slot0_content_">
                    <path id="slot0_content_back" class="cls-3"
                        d="M77.9,612.45H35.3c-6.1,0-11,4.9-11,11v75.1c0,17.9,14.5,32.5,32.4,32.5h0c17.8,0,32.4-14.5,32.4-32.5v-75.1c-.1-6.1-5.1-11-11.2-11h0Z" />
                    <text id="slot0_number" class="cls-6" transform="translate(58 698.66)">
                    </text>
                </g>
            </g>
            <g id="slot1_content">
                <g id="slot1_content_">
                    <path id="slot1_content_back" class="cls-3"
                        d="M78.1,481.15H35.2c-6.1,0-11,4.9-11,11v96.6c0,6.1,4.9,11,11,11h42.9c6.1,0,11-4.9,11-11v-96.6c0-6.1-4.9-11-11-11h0Z" />
                    <text id="slot1_number" class="cls-6" transform="translate(58 567.61)">
                    </text>
                </g>
            </g>
            <g id="slot2_content">
                <g id="slot2_content_">
                    <path id="slot2_content_back" class="cls-3"
                        d="M89.1,360.95v96.5c0,6.1-4.9,11-11,11H35.3c-6.1,0-11-4.9-11-11v-96.5c0-6.1,4.9-11,11-11h42.9c6,0,10.9,4.9,10.9,11Z" />
                    <text id="slot2_number" class="cls-6" transform="translate(58 436.46)">
                    </text>
                </g>
            </g>
            <g id="slot3_content">
                <g id="slot3_content_">
                    <path id="slot3_content_back" class="cls-3"
                        d="M78.1,218.75H35.2c-6.1,0-11,4.9-11,11v96.6c0,6.1,4.9,11,11,11h42.9c6.1,0,11-4.9,11-11v-96.6c0-6.1-4.9-11-11-11h0Z" />
                    <text id="slot3_number" class="cls-6" transform="translate(58 305.21)">
                    </text>
                </g>
            </g>
            <g id="slot4_content">
                <g id="slot4_content_">
                    <path id="slot4_content_back" class="cls-3"
                        d="M89.1,98.55v96.5c0,6.1-4.9,11-11,11H35.3c-6.1,0-11-4.9-11-11V98.55c0-6.1,4.9-11,11-11h42.9c6,0,10.9,4.9,10.9,11Z" />
                    <text id="slot4_number" class="cls-6" transform="translate(58 174.06)">
                    </text>
                </g>
            </g>
        </g>
    </g>
</svg>